<?xml version="1.0" encoding="UTF-8"?>
<svg version="1.1" xmlns="http://www.w3.org/2000/svg" width="166" height="235">
<path d="M0 0 C5.23250597 3.03528011 9.93244045 6.50181935 14.51513672 10.45898438 C15.02077148 10.8853418 15.52640625 11.31169922 16.04736328 11.75097656 C28.91041822 22.6520036 38.84371811 36.12970234 41.26513672 53.30664062 C42.99345834 75.09969603 40.03426478 94.84272096 26.01513672 112.39648438 C24.53472805 114.10119738 23.03633749 115.79057062 21.51513672 117.45898438 C20.65275391 118.42578125 20.65275391 118.42578125 19.77294922 119.41210938 C5.88300434 134.16602212 -15.46378918 144.58522343 -35.72558594 145.56762695 C-45.09352196 145.80821123 -54.38553935 145.94299522 -63.48486328 143.45898438 C-65.20189453 142.99878906 -65.20189453 142.99878906 -66.95361328 142.52929688 C-85.24005116 137.05092189 -100.69600193 126.17973727 -111.35986328 110.14648438 C-113.77685786 105.57439866 -114.71201718 101.54159941 -113.48486328 96.45898438 C-110.95366368 90.6660357 -107.1990799 86.31609268 -101.48486328 83.45898438 C-97.14409479 82.7489702 -93.1556437 82.45532483 -89.29345703 84.77539062 C-87.23264085 86.57810067 -85.34640202 88.45151993 -83.48486328 90.45898438 C-72.76703294 101.93862129 -60.60701266 110.29771318 -44.53173828 110.92504883 C-31.5740687 111.1020453 -20.86751841 108.47329454 -10.48486328 100.45898438 C-9.45361328 99.75773437 -8.42236328 99.05648437 -7.35986328 98.33398438 C0.48759845 91.51390621 4.72390584 80.20538993 5.75732422 70.08789062 C6.06759234 60.14207359 3.40382755 50.84777093 -3.35595703 43.39648438 C-13.69948905 33.67925797 -26.25303443 27.97334887 -39.08276367 22.31518555 C-54.46787702 15.49295689 -54.46787702 15.49295689 -58.48486328 7.45898438 C-59.27061882 0.52887816 -58.39334257 -4.73873709 -54.48486328 -10.54101562 C-41.2710583 -26.73858302 -13.39549348 -7.46457494 0 0 Z " fill="#FD343D" transform="translate(121.48486328125,84.541015625)"/>
<path d="M0 0 C3.70467084 3.95953763 6.99418623 8.07132935 7.00390625 13.69921875 C6.05707651 19.44852509 3.39174149 23.64463235 -1 27.4375 C-6.10711315 30.70252266 -12.19818039 30.33166279 -18 29.4375 C-21.50144698 27.59099225 -24.14130634 25.14889456 -27 22.4375 C-39.10862768 12.61657106 -50.36784476 9.46242497 -66 10.4375 C-73.45216904 11.61363808 -79.02410419 14.97343441 -85 19.4375 C-85.886875 20.05625 -86.77375 20.675 -87.6875 21.3125 C-95.39512006 28.39517789 -100.86170654 37.97199594 -102 48.4375 C-102.32034849 56.31569978 -100.13028768 62.04562827 -96.375 68.90625 C-95 71.4375 -95 71.4375 -94 74.4375 C-93.01 74.7675 -92.02 75.0975 -91 75.4375 C-90.319375 76.159375 -89.63875 76.88125 -88.9375 77.625 C-80.65418704 86.15193981 -67.00775773 91.60546015 -56.07421875 96.05078125 C-53 97.4375 -53 97.4375 -52 99.4375 C-51.319375 99.664375 -50.63875 99.89125 -49.9375 100.125 C-45.64792542 102.04161843 -42.14683928 104.95244902 -39 108.4375 C-37.12634758 113.62059283 -37.54361707 118.88042882 -39.0625 124.0625 C-41.98957781 129.1612807 -45.60228077 132.21199906 -50.8125 134.875 C-59.04672845 136.32809914 -66.23638236 133.99637967 -73.625 130.5 C-74.48601318 130.10176025 -75.34702637 129.70352051 -76.23413086 129.29321289 C-84.59223885 125.32980472 -92.35616684 120.62786393 -100 115.4375 C-101.01707031 114.75816406 -102.03414062 114.07882813 -103.08203125 113.37890625 C-119.6576327 101.85712454 -130.90727453 87.22798173 -135 67.4375 C-138.52195761 47.26628823 -134.06182101 26.71241158 -122.8125 9.6875 C-115.37203577 -0.45745458 -106.98754415 -8.42429718 -96 -14.5625 C-95.22398438 -15.02269531 -94.44796875 -15.48289062 -93.6484375 -15.95703125 C-62.47200209 -33.21355319 -24.84170392 -23.15394484 0 0 Z " fill="#FC1E50" transform="translate(139,31.5625)"/>
<path d="M0 0 C0 0.33 0 0.66 0 1 C-4.75216138 1.15086227 -8.89381277 1.14794426 -13.5 -0.0625 C-17.94748696 -1.13926 -22.65957779 -1.73442574 -27 0 C-29.96645469 3.71994775 -30.49790993 7.01130519 -30.8125 11.6875 C-30.90144531 12.82574219 -30.99039063 13.96398437 -31.08203125 15.13671875 C-31.32407948 18.13363179 -31.32407948 18.13363179 -29 20 C-28.814375 20.969375 -28.62875 21.93875 -28.4375 22.9375 C-27.34350346 26.0625432 -27.34350346 26.0625432 -25.08203125 27.0234375 C-20.80541689 28.47046614 -16.48116168 29.42549209 -12 30 C-12 30.66 -12 31.32 -12 32 C-10.576875 31.9071875 -10.576875 31.9071875 -9.125 31.8125 C-8.09375 31.874375 -7.0625 31.93625 -6 32 C-5.34 32.99 -4.68 33.98 -4 35 C-1.76360616 36.1611984 -1.76360616 36.1611984 0.8125 37.0625 C1.66457031 37.38347656 2.51664063 37.70445313 3.39453125 38.03515625 C4.68423828 38.51275391 4.68423828 38.51275391 6 39 C7.66841153 39.66228784 9.33560983 40.32767004 11 41 C11 41.66 11 42.32 11 43 C12.45804169 43.81302325 13.91644315 44.62540131 15.375 45.4375 C16.59316406 46.11619141 16.59316406 46.11619141 17.8359375 46.80859375 C19.20996622 47.5650536 20.59709261 48.29854631 22 49 C21.505 49.99 21.505 49.99 21 51 C21.66 51 22.32 51 23 51 C23 51.66 23 52.32 23 53 C23.66 53 24.32 53 25 53 C25 53.66 25 54.32 25 55 C25.66 55 26.32 55 27 55 C32.21714349 63.45537048 34.50783466 70.97543212 34.3125 80.9375 C34.31572266 81.78634766 34.31894531 82.63519531 34.32226562 83.50976562 C34.26781325 89.73218675 34.26781325 89.73218675 32 92 C32 92.99 32 93.98 32 95 C30.42578125 97.3046875 30.42578125 97.3046875 28.3125 99.875 C27.62800781 100.71804687 26.94351563 101.56109375 26.23828125 102.4296875 C22.29582109 106.95698032 18.01284194 110.99327735 13.4375 114.875 C12.50808594 115.67679687 11.57867187 116.47859375 10.62109375 117.3046875 C8 119 8 119 5.66015625 118.7578125 C4.83837891 118.38269531 4.83837891 118.38269531 4 118 C4.58007812 117.62488281 5.16015625 117.24976563 5.7578125 116.86328125 C8.19107691 115.26921199 10.59743594 113.63990804 13 112 C14.03125 111.29875 15.0625 110.5975 16.125 109.875 C23.97246173 103.05492184 28.20876912 91.74640556 29.2421875 81.62890625 C29.55245562 71.68308921 26.88869083 62.38878656 20.12890625 54.9375 C9.78537423 45.22027359 -2.76817115 39.5143645 -15.59790039 33.85620117 C-30.98301374 27.03397252 -30.98301374 27.03397252 -35 19 C-35.78575554 12.06989379 -34.90847929 6.80227853 -31 1 C-22.4131536 -9.52581172 -10.56001038 -4.57001995 0 0 Z " fill="#5A081A" transform="translate(98,73)"/>
<path d="M0 0 C3 1 3 1 5.0625 3.1875 C13.34581296 11.71443981 26.99224227 17.16796015 37.92578125 21.61328125 C41 23 41 23 42 25 C42.680625 25.226875 43.36125 25.45375 44.0625 25.6875 C48.35207458 27.60411843 51.85316072 30.51494902 55 34 C56.87365242 39.18309283 56.45638293 44.44292882 54.9375 49.625 C52.01042219 54.7237807 48.39771923 57.77449906 43.1875 60.4375 C34.95327155 61.89059914 27.76361764 59.55887967 20.375 56.0625 C19.51398682 55.66426025 18.65297363 55.26602051 17.76586914 54.85571289 C9.41072317 50.89370931 1.63379708 46.20128243 -6 41 C-7.08667969 40.26265625 -8.17335938 39.5253125 -9.29296875 38.765625 C-13.92811535 35.50816398 -17.57788898 32.5601984 -21 28 C-20.15308594 28.43119141 -20.15308594 28.43119141 -19.2890625 28.87109375 C-17.00744667 29.9963275 -14.70358049 31.03839186 -12.375 32.0625 C-10.22728953 33.00792072 -8.09885575 33.95057213 -6 35 C-6 35.66 -6 36.32 -6 37 C-5.319375 37.2475 -4.63875 37.495 -3.9375 37.75 C-1.60298132 38.7434122 0.44578493 39.79013451 2.625 41.0625 C5.84176692 43.05729402 5.84176692 43.05729402 9 44 C9.33 43.01 9.66 42.02 10 41 C10.33 41.66 10.66 42.32 11 43 C10.67 43.99 10.34 44.98 10 46 C12.64 46.99 15.28 47.98 18 49 C18.495 48.01 18.495 48.01 19 47 C19 47.66 19 48.32 19 49 C19.66 49 20.32 49 21 49 C21 49.66 21 50.32 21 51 C21.66 51 22.32 51 23 51 C23 51.66 23 52.32 23 53 C25.22785577 53.49993278 27.4562461 53.99586829 29.6875 54.48046875 C31.36523231 54.85739172 33.03123456 55.28778639 34.6875 55.75 C37.80551124 56.0870823 40.06828583 55.01972667 43 54 C44.485 54.495 44.485 54.495 46 55 C46.66 53.35 47.32 51.7 48 50 C48.66 50 49.32 50 50 50 C50 49.34 50 48.68 50 48 C51.32 48 52.64 48 54 48 C53.97624825 40.12948387 53.97624825 40.12948387 51.125 33 C47.43871167 30.64077547 43.78568954 29.29759478 39.62109375 27.9921875 C36.96265421 26.98586314 35.2270248 25.73264377 33 24 C31.12011801 23.3074119 29.23886289 22.61806983 27.34765625 21.95703125 C23.6063033 20.43185409 20.18668918 18.35344435 16.7109375 16.3046875 C14.00930434 14.84284421 14.00930434 14.84284421 10.80078125 14.50390625 C8 14 8 14 5.8125 11.0625 C5.214375 10.051875 4.61625 9.04125 4 8 C3.01 7.34 2.02 6.68 1 6 C0.3125 2.875 0.3125 2.875 0 0 Z " fill="#D62C43" transform="translate(45,106)"/>
<path d="M0 0 C13.52028974 2.2237417 27.74781989 12.2441641 38 21 C38.50853516 21.42780762 39.01707031 21.85561523 39.54101562 22.29638672 C52.399331 33.19612475 62.32936859 46.6763022 64.75 63.84765625 C66.32302187 83.68247888 64.51919755 104.44740264 51.27734375 120.39453125 C50.52582031 121.25433594 49.77429688 122.11414063 49 123 C49 119.37968443 50.1430506 118.04539702 52 115 C52.165 114.29875 52.33 113.5975 52.5 112.875 C53 111 53 111 54.4296875 109.890625 C56.857527 106.96755455 57.06027037 103.52649045 57.625 99.875 C58.89527027 92.10472973 58.89527027 92.10472973 60 91 C60.2693563 86.9262182 60.27154884 82.84827292 60.29516602 78.76635742 C60.30655868 77.40004007 60.32680273 76.03376256 60.35668945 74.66772461 C60.61445921 62.88375847 59.19267669 52.59023559 52 43 C51.649375 42.2575 51.29875 41.515 50.9375 40.75 C49.99154148 38.65383728 49.99154148 38.65383728 47 37 C46.566875 36.236875 46.13375 35.47375 45.6875 34.6875 C44.05933835 31.77645384 44.05933835 31.77645384 40.9375 29.5 C38 27 38 27 37.12890625 24.59375 C33.71774821 16.75634883 22.40847438 12.43964882 15 9 C12.84992344 7.96712008 10.70415333 6.92523385 8.5625 5.875 C7.57378906 5.39804688 6.58507812 4.92109375 5.56640625 4.4296875 C3.25623668 3.14274372 1.72470478 1.97610243 0 0 Z " fill="#6A0C25" transform="translate(98,74)"/>
<path d="M0 0 C0 3 0 3 -1.58203125 4.98046875 C-20.33066745 23.53209651 -42.4681733 33.27223301 -68.85449219 33.1784668 C-82.66366465 33.01419908 -97.32969765 29.68532106 -109 22 C-105.29218603 20.62673557 -103.54706442 21.46831309 -100 23 C-98.60666264 23.30336632 -97.21059402 23.59436992 -95.8125 23.875 C-92 25 -92 25 -90.76171875 27.0703125 C-90.51035156 27.70710938 -90.25898437 28.34390625 -90 29 C-85.82317579 29.05022543 -81.64652132 29.0861004 -77.46948242 29.10986328 C-76.05473765 29.11979131 -74.64001266 29.13333825 -73.2253418 29.15087891 C-56.02422888 29.42526977 -56.02422888 29.42526977 -39.75 24.5 C-38.41195312 23.86578125 -38.41195312 23.86578125 -37.046875 23.21875 C-34.85734743 22.16446104 -34.85734743 22.16446104 -34 20 C-32.37656944 19.76324971 -30.75145443 19.53459676 -29.12109375 19.3515625 C-25.27753708 18.71450891 -21.65560372 17.31800678 -18 16 C-17.67 14.35 -17.34 12.7 -17 11 C-15.35 11.33 -13.7 11.66 -12 12 C-12 10.35 -12 8.7 -12 7 C-11.01 8.485 -11.01 8.485 -10 10 C-6.7 6.7 -3.4 3.4 0 0 Z " fill="#E05D27" transform="translate(145,197)"/>
<path d="M0 0 C3.14784585 1.89095196 5.51289415 4.31793034 8 7 C17.9112293 17.61570394 29.68313606 26.48228968 44.625 27.3359375 C52.45275908 27.58079559 59.8184745 27.51936292 67.1875 24.55859375 C69 24 69 24 72 25 C70.35 25.33 68.7 25.66 67 26 C67 26.66 67 27.32 67 28 C61.83418365 31.08944284 57.43539327 31.67345526 51.5625 31.9375 C50.68883789 31.98124756 49.81517578 32.02499512 48.91503906 32.07006836 C40.71805329 32.31005672 33.71074003 30.72212489 26 28 C26 27.34 26 26.68 26 26 C25.030625 25.71125 24.06125 25.4225 23.0625 25.125 C20 24 20 24 19 22 C18.34 22 17.68 22 17 22 C16.34 20.68 15.68 19.36 15 18 C13.68 18.33 12.36 18.66 11 19 C10.938125 18.21625 10.87625 17.4325 10.8125 16.625 C10.544375 15.75875 10.27625 14.8925 10 14 C9.236875 13.71125 8.47375 13.4225 7.6875 13.125 C4.64220839 11.85022677 4.39198879 11.30508552 2.9375 8.5 C1.76832178 6.25946325 1.15698207 5.12035292 -0.875 3.5625 C-3.63316336 2.83239793 -6.16138622 2.8709721 -9 3 C-9 3.66 -9 4.32 -9 5 C-9.56589844 5.18175781 -10.13179687 5.36351562 -10.71484375 5.55078125 C-11.81505859 5.92783203 -11.81505859 5.92783203 -12.9375 6.3125 C-13.66839844 6.55613281 -14.39929688 6.79976562 -15.15234375 7.05078125 C-17.35932024 7.91240441 -17.35932024 7.91240441 -18 11 C-18.66 11 -19.32 11 -20 11 C-18.56314642 5.97101246 -16.05763331 4.04322498 -12 1 C-8.19859082 -0.90070459 -4.12105099 -0.73222786 0 0 Z " fill="#E25828" transform="translate(30,168)"/>
<path d="M0 0 C3.70467084 3.95953763 6.99418623 8.07132935 7.00390625 13.69921875 C6.05707651 19.44852509 3.39174149 23.64463235 -1 27.4375 C-4.42783913 29.67532511 -7.45442659 29.76610581 -11.5 29.8125 C-12.6240625 29.84085938 -13.748125 29.86921875 -14.90625 29.8984375 C-18.5807397 29.35097565 -19.70821181 28.27976673 -22 25.4375 C-20.515 25.9325 -20.515 25.9325 -19 26.4375 C-13.35172911 26.64289167 -9.10006382 25.92421628 -3.875 23.9375 C-3.19179687 23.6796875 -2.50859375 23.421875 -1.8046875 23.15625 C0.056651 22.44439695 0.056651 22.44439695 2 21.4375 C2.65555119 18.91016765 2.65555119 18.91016765 3 16.4375 C3.66 16.4375 4.32 16.4375 5 16.4375 C3.64913741 10.2560216 3.64913741 10.2560216 -0.4375 5.875 C-1.283125 5.400625 -2.12875 4.92625 -3 4.4375 C-3.8527832 2.73168945 -3.8527832 2.73168945 -4.67578125 0.67578125 C-7.00087477 -4.18647177 -10.15423767 -6.21563801 -14.75 -8.8125 C-15.42804688 -9.21984375 -16.10609375 -9.6271875 -16.8046875 -10.046875 C-18.84951877 -11.25977872 -20.91493326 -12.42030817 -23 -13.5625 C-23.67087646 -13.93342773 -24.34175293 -14.30435547 -25.03295898 -14.68652344 C-40.47717889 -22.85790955 -62.99432354 -23.16102642 -79.5378418 -18.50756836 C-86.49215495 -16.4285391 -86.49215495 -16.4285391 -93.05981445 -13.40576172 C-95 -12.5625 -95 -12.5625 -98 -13.5625 C-65.06672229 -32.27458961 -27.21916023 -25.36987546 0 0 Z " fill="#5D0728" transform="translate(139,31.5625)"/>
<path d="M0 0 C1.13970202 3.85558769 0.5690697 5.28378229 -1 9 C-3.14130901 16.69607004 -3.30067402 23.97745576 -3.25 31.9375 C-3.25773438 33.14857422 -3.26546875 34.35964844 -3.2734375 35.60742188 C-3.75431512 47.37048117 -3.75431512 47.37048117 0.57324219 57.76928711 C1.04407227 58.17542236 1.51490234 58.58155762 2 59 C1.67 59.66 1.34 60.32 1 61 C1.66 61.66 2.32 62.32 3 63 C3.71695751 64.72721583 4.43285316 66.45490778 5.13671875 68.1875 C6.36775721 70.77212374 8.18188075 72.80571815 10 75 C10 75.66 10 76.32 10 77 C10.66 77 11.32 77 12 77 C12.33 79.31 12.66 81.62 13 84 C0.11178829 74.56960119 -5.04159214 60.21633592 -7.6875 45.0625 C-9.23602353 29.05010776 -6.26819004 14.69184464 0 0 Z " fill="#A0272B" transform="translate(11,50)"/>
<path d="M0 0 C0.56460937 0.28746094 1.12921875 0.57492188 1.7109375 0.87109375 C3.99255333 1.9963275 6.29641951 3.03839186 8.625 4.0625 C10.77271047 5.00792072 12.90114425 5.95057213 15 7 C15 7.66 15 8.32 15 9 C15.680625 9.2475 16.36125 9.495 17.0625 9.75 C19.39701868 10.7434122 21.44578493 11.79013451 23.625 13.0625 C26.84176692 15.05729402 26.84176692 15.05729402 30 16 C30.33 15.01 30.66 14.02 31 13 C31.33 13.66 31.66 14.32 32 15 C31.67 15.99 31.34 16.98 31 18 C33.64 18.99 36.28 19.98 39 21 C39.33 20.34 39.66 19.68 40 19 C40 19.66 40 20.32 40 21 C40.66 21 41.32 21 42 21 C42 21.66 42 22.32 42 23 C42.66 23 43.32 23 44 23 C44 23.66 44 24.32 44 25 C46.22785577 25.49993278 48.4562461 25.99586829 50.6875 26.48046875 C52.36523231 26.85739172 54.03123456 27.28778639 55.6875 27.75 C58.80551124 28.0870823 61.06828583 27.01972667 64 26 C65.485 26.495 65.485 26.495 67 27 C67.99 24.525 67.99 24.525 69 22 C69.66 22 70.32 22 71 22 C71 21.34 71 20.68 71 20 C71.99 20 72.98 20 74 20 C72.2620468 25.68784683 68.78816742 27.80788839 64 31 C56.12187147 32.42739611 50.23948825 30.18142434 43.3359375 26.5078125 C40.55320194 25.25004209 38.53203442 24.64393165 35.59375 24.09375 C30.75544299 23.11022196 27.2026244 21.08950659 23.125 18.375 C22.43954102 17.9313208 21.75408203 17.4876416 21.04785156 17.03051758 C19.01867748 15.70566725 17.00652954 14.35885228 15 13 C14.42797852 12.61408691 13.85595703 12.22817383 13.26660156 11.83056641 C8.07886483 8.29462275 3.79192252 5.05299767 0 0 Z " fill="#D03B36" transform="translate(24,134)"/>
<path d="M0 0 C0.79921875 0.13148437 1.5984375 0.26296875 2.421875 0.3984375 C7.91903226 1.35910576 13.52369071 2.55569888 18.625 4.875 C19.12 5.865 19.12 5.865 19.625 6.875 C20.615 7.205 21.605 7.535 22.625 7.875 C24.16015625 9.8359375 24.16015625 9.8359375 25.6875 12.25 C26.19410156 13.04148437 26.70070312 13.83296875 27.22265625 14.6484375 C27.68542969 15.38320313 28.14820313 16.11796875 28.625 16.875 C29.615 18.36 29.615 18.36 30.625 19.875 C27.48535895 18.44660475 25.03252362 16.68911118 22.375 14.5 C11.41039892 5.85414242 0.40165222 4.01566427 -13.375 4.875 C-20.09344732 5.9353385 -25.04639336 8.62625711 -30.46484375 12.66796875 C-32.375 13.875 -32.375 13.875 -35.375 13.875 C-33.28772655 8.772776 -31.30473215 6.38468182 -26.375 3.875 C-23.93454594 3.27495436 -21.52212345 2.82474632 -19.03515625 2.46484375 C-16.19180838 1.9489326 -16.19180838 1.9489326 -13.14453125 0.24609375 C-8.62566359 -1.76657285 -4.7293554 -0.9065857 0 0 Z " fill="#CD1257" transform="translate(86.375,37.125)"/>
<path d="M0 0 C13.52028974 2.2237417 27.74781989 12.2441641 38 21 C38.50853516 21.42780762 39.01707031 21.85561523 39.54101562 22.29638672 C49.50205587 30.74016229 57.94356948 40.30252737 62 53 C61.67 53.99 61.34 54.98 61 56 C60.69707031 55.32453125 60.39414063 54.6490625 60.08203125 53.953125 C57.65652031 48.78865247 55.78466928 45.322687 51 42 C50.67 41.01 50.34 40.02 50 39 C49.01 38.34 48.02 37.68 47 37 C46.566875 36.236875 46.13375 35.47375 45.6875 34.6875 C44.05933835 31.77645384 44.05933835 31.77645384 40.9375 29.5 C38 27 38 27 37.12890625 24.59375 C33.71774821 16.75634883 22.40847438 12.43964882 15 9 C12.84992344 7.96712008 10.70415333 6.92523385 8.5625 5.875 C7.57378906 5.39804688 6.58507812 4.92109375 5.56640625 4.4296875 C3.25623668 3.14274372 1.72470478 1.97610243 0 0 Z " fill="#CF145B" transform="translate(98,74)"/>
<path d="M0 0 C3.89151802 0.63201661 7.16590681 1.80528459 10.75 3.4375 C12.19632813 4.08525391 12.19632813 4.08525391 13.671875 4.74609375 C16 6 16 6 17 8 C17.680625 8.226875 18.36125 8.45375 19.0625 8.6875 C23.35207458 10.60411843 26.85316072 13.51494902 30 17 C31.87365242 22.18309283 31.45638293 27.44292882 29.9375 32.625 C27.01042219 37.7237807 23.39771923 40.77449906 18.1875 43.4375 C7.52752618 45.31867185 -0.76456241 40.71623013 -10 36 C-8.37890625 35.31640625 -8.37890625 35.31640625 -6 35 C-3.15234375 36.21484375 -3.15234375 36.21484375 0.0625 37.9375 C6.19433796 40.88298445 11.23764746 42.44753233 18 41 C22.85709788 38.81163722 25.63078975 35.75908222 28 31 C28.54412734 28.0541859 28.54412734 28.0541859 28.5 25 C28.54640625 23.4840625 28.54640625 23.4840625 28.59375 21.9375 C27.7987486 18.0043352 26.14281603 16.27710016 23 14 C19.14073199 11.58254336 15.18038994 9.37541831 11.1875 7.1875 C10.11306641 6.59001953 9.03863281 5.99253906 7.93164062 5.37695312 C5.29183377 3.91039376 2.6479824 2.45172939 0 1 C0 0.67 0 0.34 0 0 Z " fill="#4A0F10" transform="translate(70,123)"/>
<path d="M0 0 C3.46828989 2.31219326 3.78098514 3.71312524 4.64257812 7.66894531 C5.26671812 11.73949769 5.28829582 15.76458252 5.25 19.875 C5.25773437 20.72835937 5.26546875 21.58171875 5.2734375 22.4609375 C5.27085937 23.275625 5.26828125 24.0903125 5.265625 24.9296875 C5.26336914 25.66429199 5.26111328 26.39889648 5.25878906 27.15576172 C5 29 5 29 3 31 C3 31.99 3 32.98 3 34 C1.42578125 36.3046875 1.42578125 36.3046875 -0.6875 38.875 C-1.37199219 39.71804687 -2.05648437 40.56109375 -2.76171875 41.4296875 C-6.70417891 45.95698032 -10.98715806 49.99327735 -15.5625 53.875 C-16.49191406 54.67679688 -17.42132813 55.47859375 -18.37890625 56.3046875 C-21 58 -21 58 -23.33984375 57.7578125 C-24.16162109 57.38269531 -24.16162109 57.38269531 -25 57 C-24.41992188 56.62488281 -23.83984375 56.24976563 -23.2421875 55.86328125 C-16.18065926 51.23716456 -10.40884338 47.3441426 -6.17578125 39.8671875 C-5 38 -5 38 -3.54296875 36.6953125 C1.56797721 31.07974149 1.41216591 24.66570623 1.25 17.5 C1.24484375 16.58863281 1.2396875 15.67726562 1.234375 14.73828125 C1.1765995 9.73347881 0.84038984 4.93390166 0 0 Z " fill="#D32845" transform="translate(127,134)"/>
<path d="M0 0 C0 0.33 0 0.66 0 1 C-4.75216138 1.15086227 -8.89381277 1.14794426 -13.5 -0.0625 C-17.94748696 -1.13926 -22.65957779 -1.73442574 -27 0 C-29.96645469 3.71994775 -30.49790993 7.01130519 -30.8125 11.6875 C-30.90144531 12.82574219 -30.99039063 13.96398437 -31.08203125 15.13671875 C-31.32407948 18.13363179 -31.32407948 18.13363179 -29 20 C-29.375 22.125 -29.375 22.125 -30 24 C-33.16354361 20.04557048 -34.61808042 17.43172062 -34.32421875 12.15234375 C-33.56617801 7.1200492 -32.24645417 2.62039042 -29.125 -1.4375 C-19.52621238 -8.49543207 -9.94427157 -4.30354875 0 0 Z " fill="#860D33" transform="translate(98,73)"/>
<path d="M0 0 C5.77628476 0.5251168 11.82068082 1.21692185 17 4 C17.29519531 4.67933594 17.59039062 5.35867187 17.89453125 6.05859375 C18.25933594 6.69925781 18.62414062 7.33992187 19 8 C21.57876609 8.726448 21.57876609 8.726448 24.8125 8.75 C26.78863281 8.83314453 26.78863281 8.83314453 28.8046875 8.91796875 C40.20019533 9.14924289 51.60306309 9.07460982 63 9 C54.38839481 14.74107013 37.15709605 12.89167621 27.25 11.3125 C17.84973571 9.24150427 8.08006799 6.32102038 0 1 C0 0.67 0 0.34 0 0 Z " fill="#652B0F" transform="translate(36,218)"/>
<path d="M0 0 C0.66 0.33 1.32 0.66 2 1 C1.20335937 1.94359375 1.20335937 1.94359375 0.390625 2.90625 C-7.30915626 12.23591197 -12.48209127 20.88525831 -12 33.3125 C-11.35847452 38.99801956 -9.09921161 43.49182494 -6.375 48.46875 C-5 51 -5 51 -4 54 C-6.875 53.8125 -6.875 53.8125 -10 53 C-11.93720146 49.74197937 -12 47.84955327 -12 44 C-12.66 44 -13.32 44 -14 44 C-14.579286 28.47191683 -13.28371766 17.02041402 -4 4 C-2.69608952 2.63787923 -1.36972249 1.29592278 0 0 Z " fill="#47060F" transform="translate(49,52)"/>
<path d="M0 0 C5.3042184 1.89436371 8.09291563 4.78524503 10.984375 9.46484375 C12.48033895 13.19899991 12.12046375 15.81819929 11.0390625 19.6328125 C9.08311692 24.08883889 6.29255508 27.50833752 2.2109375 30.1640625 C-0.75303845 31.28471772 -3.33684257 31.33872526 -6.5 31.375 C-7.6240625 31.40335938 -8.748125 31.43171875 -9.90625 31.4609375 C-13.5807397 30.91347565 -14.70821181 29.84226673 -17 27 C-16.01 27.33 -15.02 27.66 -14 28 C-8.35172911 28.20539167 -4.10006382 27.48671628 1.125 25.5 C1.80820313 25.2421875 2.49140625 24.984375 3.1953125 24.71875 C5.056651 24.00689695 5.056651 24.00689695 7 23 C7.65555119 20.47266765 7.65555119 20.47266765 8 18 C8.66 18 9.32 18 10 18 C8.60794448 11.75109537 8.60794448 11.75109537 4.4375 7.3125 C3.633125 6.879375 2.82875 6.44625 2 6 C0.6875 2.8125 0.6875 2.8125 0 0 Z " fill="#830A3E" transform="translate(134,30)"/>
<path d="M0 0 C4.88249002 -0.39857061 7.79133092 0.0991883 11.9296875 2.734375 C14.48034749 4.29364639 17.12383613 5.56848814 19.8125 6.875 C28.93839246 11.41518839 37.1008133 16.55090554 45 23 C44.505 24.485 44.505 24.485 44 26 C43.34 25.67 42.68 25.34 42 25 C42 24.34 42 23.68 42 23 C41.34 23 40.68 23 40 23 C40 22.34 40 21.68 40 21 C38.02 20.67 36.04 20.34 34 20 C34 19.01 34 18.02 34 17 C30.68885166 15.87119943 27.41021743 14.78697325 24 14 C24 13.01 24 12.02 24 11 C23.29488281 10.88785156 22.58976562 10.77570313 21.86328125 10.66015625 C18.72610488 9.93685092 16.09872094 8.80542309 13.1875 7.4375 C11.72376953 6.75494141 11.72376953 6.75494141 10.23046875 6.05859375 C9.12638672 5.53458984 9.12638672 5.53458984 8 5 C8 4.34 8 3.68 8 3 C6.865625 2.87625 5.73125 2.7525 4.5625 2.625 C3.386875 2.41875 2.21125 2.2125 1 2 C0.67 1.34 0.34 0.68 0 0 Z " fill="#D6135A" transform="translate(91,74)"/>
<path d="M0 0 C1.125 3.75 1.125 3.75 0 6 C-0.60897139 11.04576294 -0.42162398 14.03961029 2.4375 18.3125 C7.20857756 24.06486302 13.86569809 25.08534591 21 26 C21 26.66 21 27.32 21 28 C21.5775 28.0825 22.155 28.165 22.75 28.25 C25.64645364 29.21548455 26.92146398 30.79155548 29 33 C30.31558703 34.02323436 31.64377755 35.03126968 33 36 C27.04127032 35.01369974 21.98919011 32.43353979 16.5625 29.875 C15.53833984 29.41351563 14.51417969 28.95203125 13.45898438 28.4765625 C6.63140075 25.25942277 1.44452537 21.88905073 -2 15 C-2.40253336 9.71089889 -2.55311917 4.78709845 0 0 Z " fill="#610B1F" transform="translate(65,77)"/>
<path d="M0 0 C0.86625 0.4640625 0.86625 0.4640625 1.75 0.9375 C1.09 1.5975 0.43 2.2575 -0.25 2.9375 C-0.25 2.2775 -0.25 1.6175 -0.25 0.9375 C-3.715 2.4225 -3.715 2.4225 -7.25 3.9375 C-7.25 3.2775 -7.25 2.6175 -7.25 1.9375 C-12.07442184 3.20696514 -12.07442184 3.20696514 -15.25 6.9375 C-15.41666667 9.9375 -15.41666667 9.9375 -15.25 12.9375 C-15.25 15.77717231 -15.65267181 18.17485711 -16.25 20.9375 C-16.91 20.9375 -17.57 20.9375 -18.25 20.9375 C-20.54612756 11.52747722 -20.54612756 11.52747722 -20.25 6.9375 C-19.59 6.9375 -18.93 6.9375 -18.25 6.9375 C-18.1675 6.31875 -18.085 5.7 -18 5.0625 C-17.25 2.9375 -17.25 2.9375 -15.4375 1.6875 C-13.25 0.9375 -13.25 0.9375 -9.25 0.9375 C-9.25 0.2775 -9.25 -0.3825 -9.25 -1.0625 C-5.37331765 -2.35472745 -3.62094106 -1.70988884 0 0 Z " fill="#EC7021" transform="translate(30.25,172.0625)"/>
<path d="M0 0 C3.14859217 1.89140029 5.50951168 4.32036067 8 7 C13.52296421 12.7822583 19.43073911 17.42646394 26 22 C25.01 22.495 25.01 22.495 24 23 C16.58821249 17.99668503 10.38265603 12.65594109 4.21484375 6.22265625 C1.92122437 3.9209465 1.04802256 3.04729344 -2.1640625 2.90234375 C-2.97617187 2.91394531 -3.78828125 2.92554688 -4.625 2.9375 C-5.44226562 2.94652344 -6.25953125 2.95554688 -7.1015625 2.96484375 C-7.72804688 2.97644531 -8.35453125 2.98804688 -9 3 C-9 3.66 -9 4.32 -9 5 C-9.56589844 5.18175781 -10.13179687 5.36351562 -10.71484375 5.55078125 C-11.81505859 5.92783203 -11.81505859 5.92783203 -12.9375 6.3125 C-13.66839844 6.55613281 -14.39929688 6.79976562 -15.15234375 7.05078125 C-17.35932024 7.91240441 -17.35932024 7.91240441 -18 11 C-18.66 11 -19.32 11 -20 11 C-18.56314642 5.97101246 -16.05763331 4.04322498 -12 1 C-8.19859082 -0.90070459 -4.12105099 -0.73222786 0 0 Z " fill="#4C1C07" transform="translate(30,168)"/>
<path d="M0 0 C0 3 0 3 -1.58203125 4.98046875 C-11.6252469 14.91815149 -28.77485126 29.45666006 -43.8125 30.125 C-44.534375 30.08375 -45.25625 30.0425 -46 30 C-44 28 -44 28 -41.9375 27.5 C-40.9784375 27.2525 -40.9784375 27.2525 -40 27 C-39.67 26.34 -39.34 25.68 -39 25 C-37.14453125 24.47265625 -37.14453125 24.47265625 -34.8125 24.0625 C-30.81832755 23.25347304 -27.52730842 22.11638505 -24 20 C-23.67 19.34 -23.34 18.68 -23 18 C-22.175 17.731875 -21.35 17.46375 -20.5 17.1875 C-19.675 16.795625 -18.85 16.40375 -18 16 C-17.10613836 13.45224694 -17.10613836 13.45224694 -17 11 C-14.525 11.495 -14.525 11.495 -12 12 C-12 10.35 -12 8.7 -12 7 C-11.34 7.99 -10.68 8.98 -10 10 C-6.7 6.7 -3.4 3.4 0 0 Z " fill="#5C1B0F" transform="translate(145,197)"/>
<path d="M0 0 C1.90795327 2.86192991 2.92350524 5.27790075 4.0625 8.5 C4.40410156 9.4590625 4.74570313 10.418125 5.09765625 11.40625 C5.7447731 13.26636077 6.37720209 15.13160628 7 17 C7.99 17 8.98 17 10 17 C11.60546875 18.6796875 11.60546875 18.6796875 13.1875 20.875 C13.71730469 21.59429687 14.24710938 22.31359375 14.79296875 23.0546875 C16 25 16 25 16 27 C16.66 27 17.32 27 18 27 C18.33 29.31 18.66 31.62 19 34 C9.2995761 26.90212885 2.68722159 15.64462688 0 4 C0 2.68 0 1.36 0 0 Z " fill="#7C221B" transform="translate(5,100)"/>
<path d="M0 0 C19.20265239 3.15834495 36.38986204 19.0896741 50 32 C49.505 32.99 49.505 32.99 49 34 C48.57332031 33.53851563 48.14664063 33.07703125 47.70703125 32.6015625 C35.64580416 20.01809671 21.27391277 10.77792179 5.20703125 4.10546875 C2.98781973 2.99389909 1.6290173 1.85187961 0 0 Z " fill="#41031A" transform="translate(98,74)"/>
<path d="M0 0 C15.00752296 0.66344233 25.71856294 5.36980099 38 14 C36.359375 14.703125 36.359375 14.703125 34 15 C31.265625 13.671875 31.265625 13.671875 28.25 11.75 C23.53496132 8.86476344 19.24022899 6.71662674 14 5 C12.96875 4.62875 11.9375 4.2575 10.875 3.875 C7.97074805 2.91659242 7.97074805 2.91659242 4.75 2.5 C2 2 2 2 0 0 Z " fill="#DC0E67" transform="translate(91,11)"/>
<path d="M0 0 C0 0.33 0 0.66 0 1 C-1.03898437 1.03738281 -2.07796875 1.07476562 -3.1484375 1.11328125 C-14.61132215 1.61298428 -23.64239267 2.74595896 -33.08984375 9.79296875 C-35 11 -35 11 -38 11 C-35.91303798 5.89853727 -34.01891582 3.37738118 -29 1 C-19.57764954 -0.77977731 -9.55898389 -0.10193229 0 0 Z " fill="#7F0C32" transform="translate(89,40)"/>
<path d="M0 0 C0.66 0.33 1.32 0.66 2 1 C0.38405168 3.04119788 -1.2856382 5.04072937 -3 7 C-3.66 7 -4.32 7 -5 7 C-5.23074219 7.58910156 -5.46148437 8.17820312 -5.69921875 8.78515625 C-7.33131704 11.56413442 -9.11854014 12.6886475 -11.8125 14.4375 C-15.66644994 17.02539113 -18.88353658 19.57189024 -22 23 C-17.70679006 13.64988413 -8.41665234 5.61110156 0 0 Z " fill="#7B0D2F" transform="translate(39,19)"/>
<path d="M0 0 C-1.65 0.33 -3.3 0.66 -5 1 C-5 1.66 -5 2.32 -5 3 C-8.04933253 4.76222546 -10.2645272 5.25597946 -13.7734375 5.265625 C-15.1346875 5.26949219 -15.1346875 5.26949219 -16.5234375 5.2734375 C-17.46445313 5.26570312 -18.40546875 5.25796875 -19.375 5.25 C-20.77492188 5.26160156 -20.77492188 5.26160156 -22.203125 5.2734375 C-27.19901244 5.25928484 -31.32063515 4.97190626 -36 3 C-33.16647553 2.18393858 -30.74689138 1.90718446 -27.8046875 2.0078125 C-27.010625 2.02642334 -26.2165625 2.04503418 -25.3984375 2.06420898 C-24.14933594 2.09430054 -24.14933594 2.09430054 -22.875 2.125 C-16.42403109 2.22335284 -10.88536159 1.99858278 -4.8125 -0.44140625 C-3 -1 -3 -1 0 0 Z " fill="#652110" transform="translate(102,193)"/>
<path d="M0 0 C5.98953579 0.47916286 10.4392749 1.7321696 15.75 4.5 C16.78000122 5.0264209 16.78000122 5.0264209 17.83081055 5.56347656 C25.65810762 9.68932455 33.9604728 14.56627882 39 22 C36.17103338 20.67898475 33.81996602 19.18516459 31.375 17.25 C21.82924725 9.97535571 11.46010627 4.50169914 0 1 C0 0.67 0 0.34 0 0 Z " fill="#41031D" transform="translate(99,10)"/>
<path d="M0 0 C3.89151802 0.63201661 7.16590681 1.80528459 10.75 3.4375 C12.19632813 4.08525391 12.19632813 4.08525391 13.671875 4.74609375 C16 6 16 6 17 8 C17.680625 8.226875 18.36125 8.45375 19.0625 8.6875 C23.39986155 10.62547006 26.54208995 13.79092219 30 17 C29.67 18.32 29.34 19.64 29 21 C28.59136719 20.23171875 28.18273437 19.4634375 27.76171875 18.671875 C25.91556203 15.87193886 24.69869864 14.85951525 21.8125 13.25 C20.94496094 12.75757813 20.07742187 12.26515625 19.18359375 11.7578125 C18.13300781 11.17773438 17.08242187 10.59765625 16 10 C14.5942937 9.20707214 13.1893986 8.41270508 11.78515625 7.6171875 C7.86380166 5.39874922 3.93379893 3.19628973 0 1 C0 0.67 0 0.34 0 0 Z " fill="#3C080C" transform="translate(70,123)"/>
<path d="M0 0 C0 0.33 0 0.66 0 1 C-1.15757813 1.04898437 -2.31515625 1.09796875 -3.5078125 1.1484375 C-5.0468967 1.22351478 -6.5859581 1.29906043 -8.125 1.375 C-9.26582031 1.42140625 -9.26582031 1.42140625 -10.4296875 1.46875 C-14.95444677 1.70278927 -18.73045467 2.34643933 -23 4 C-25.56836124 4.7338175 -27.28640069 5 -30 5 C-31.67099977 5.31088368 -33.33871537 5.64080332 -35 6 C-35.33 5.34 -35.66 4.68 -36 4 C-24.23290117 -1.05917493 -12.56781075 -0.41876596 0 0 Z " fill="#E70E63" transform="translate(91,10)"/>
<path d="M0 0 C0.33 0 0.66 0 1 0 C1.09796875 0.98742187 1.1959375 1.97484375 1.296875 2.9921875 C1.44640625 4.27351562 1.5959375 5.55484375 1.75 6.875 C1.88921875 8.15117187 2.0284375 9.42734375 2.171875 10.7421875 C2.62326887 14.08305502 2.62326887 14.08305502 5 15.26171875 C5.66 15.50535156 6.32 15.74898437 7 16 C8.35830457 19.19201574 9 21.52710626 9 25 C2.79694345 18.30409786 -1.39563612 13.38617012 -1.203125 3.953125 C-1 2 -1 2 0 0 Z " fill="#70320D" transform="translate(9,179)"/>
<path d="M0 0 C5.49945634 0.2672633 8.02273545 3.59490621 11.5625 7.375 C12.68650753 8.55167531 13.8127507 9.7262198 14.94140625 10.8984375 C15.46621582 11.44725586 15.99102539 11.99607422 16.53173828 12.56152344 C18.07402054 14.14512995 18.07402054 14.14512995 20.40234375 15.7265625 C20.92957031 16.14679688 21.45679687 16.56703125 22 17 C22 17.99 22 18.98 22 20 C21.34 20 20.68 20 20 20 C19.34 18.68 18.68 17.36 18 16 C16.68 16.33 15.36 16.66 14 17 C13.938125 16.21625 13.87625 15.4325 13.8125 14.625 C13.544375 13.75875 13.27625 12.8925 13 12 C11.8553125 11.566875 11.8553125 11.566875 10.6875 11.125 C7.18098144 9.65715502 6.64727067 7.89346814 4.98046875 4.62109375 C3.70252042 2.50815128 2.32643797 1.74778363 0 1 C0 0.67 0 0.34 0 0 Z " fill="#E16125" transform="translate(27,170)"/>
<path d="M0 0 C5.24453046 5.01552806 7.17403659 9.5941728 7.37683105 16.82788086 C7.40049367 20.55401048 7.33392201 24.27497102 7.25 28 C7.22990643 29.55336242 7.2116607 31.1067499 7.1953125 32.66015625 C7.15153679 36.44072979 7.08266974 40.22008511 7 44 C6.67 44 6.34 44 6 44 C5.9906543 43.21463867 5.98130859 42.42927734 5.97167969 41.62011719 C5.91736815 37.99615296 5.83384117 34.37339669 5.75 30.75 C5.73582031 29.51507813 5.72164062 28.28015625 5.70703125 27.0078125 C5.48632793 18.62108616 3.96095969 11.81338899 1 4 C0.64383657 2.67258277 0.30088677 1.34102798 0 0 Z " fill="#E81955" transform="translate(153,119)"/>
<path d="M0 0 C0.495 0.268125 0.99 0.53625 1.5 0.8125 C3.70157356 1.85824744 5.81880935 2.60766747 8.125 3.375 C11.81520501 4.71440774 11.81520501 4.71440774 13.375 7.125 C13.58125 7.74375 13.7875 8.3625 14 9 C14.66 9.33 15.32 9.66 16 10 C16 10.66 16 11.32 16 12 C16.8971875 12.1546875 16.8971875 12.1546875 17.8125 12.3125 C20.28243264 13.08876455 21.32251235 14.07088921 23 16 C15.06242371 16 7.18088105 7.68072922 1.58203125 2.6015625 C0 1 0 1 0 0 Z " fill="#531510" transform="translate(24,134)"/>
<path d="M0 0 C2 3.75 2 3.75 2 6 C2.66 6 3.32 6 4 6 C5.5078125 8.1171875 5.5078125 8.1171875 7.125 10.875 C7.66382813 11.77992187 8.20265625 12.68484375 8.7578125 13.6171875 C10 16 10 16 10 18 C7.125 17.8125 7.125 17.8125 4 17 C2.06279854 13.74197937 2 11.84955327 2 8 C1.34 8 0.68 8 0 8 C0 5.36 0 2.72 0 0 Z " fill="#C2293F" transform="translate(35,88)"/>
<path d="M0 0 C6.24942477 -0.56812952 9.6240957 0.46413236 14.921875 3.80859375 C16.91326503 5.09625981 16.91326503 5.09625981 19.06640625 5.4140625 C21.76413356 6.23155562 22.58584873 7.66060243 24.1875 9.9375 C24.69667969 10.64777344 25.20585938 11.35804687 25.73046875 12.08984375 C27 14 27 14 28 16 C24.86035895 14.57160475 22.40752362 12.81411118 19.75 10.625 C13.60046613 5.77594133 7.57181505 2.89295376 0 1 C0 0.67 0 0.34 0 0 Z " fill="#540724" transform="translate(89,41)"/>
<path d="M0 0 C0.99 0 1.98 0 3 0 C1.64717831 4.42741644 -0.23298888 6.36309221 -4 9 C-6.64458379 10.32229189 -8.67761301 10.09677194 -11.625 10.0625 C-12.62789063 10.05347656 -13.63078125 10.04445312 -14.6640625 10.03515625 C-15.43492188 10.02355469 -16.20578125 10.01195312 -17 10 C-13.72770819 8.32498238 -10.55488927 6.98326724 -7 6 C-6.01 6.33 -5.02 6.66 -4 7 C-3.34 5.35 -2.68 3.7 -2 2 C-1.34 2 -0.68 2 0 2 C0 1.34 0 0.68 0 0 Z " fill="#DB3440" transform="translate(95,154)"/>
<path d="M0 0 C0.99 0.33 1.98 0.66 3 1 C2.21625 1.433125 1.4325 1.86625 0.625 2.3125 C-3.76609733 6.80814727 -3.79301952 12.64499089 -4.16796875 18.72265625 C-4.23444163 21.20101095 -4.23444163 21.20101095 -2 23 C-2.375 25.125 -2.375 25.125 -3 27 C-6.16354361 23.04557048 -7.61808042 20.43172062 -7.32421875 15.15234375 C-6.41833615 9.13859302 -4.91445798 3.89767357 0 0 Z " fill="#9C173A" transform="translate(71,70)"/>
<path d="M0 0 C0.33 0.66 0.66 1.32 1 2 C-0.0625 4.5 -0.0625 4.5 -2 7 C-5.125 8.1875 -5.125 8.1875 -8 9 C-8.33 9.66 -8.66 10.32 -9 11 C-11.28515625 11.4140625 -11.28515625 11.4140625 -14.0625 11.625 C-14.98160156 11.69976562 -15.90070313 11.77453125 -16.84765625 11.8515625 C-17.91306641 11.92503906 -17.91306641 11.92503906 -19 12 C-16 10 -16 10 -12.875 8.8125 C-7.96191527 6.79255938 -4.05880768 3.35933062 0 0 Z " fill="#DB3E36" transform="translate(116,183)"/>
<path d="M0 0 C3.81684226 1.55500981 6.19195732 4.03595495 9 7 C9.99 6.34 10.98 5.68 12 5 C12 5.99 12 6.98 12 8 C13.65 8.33 15.3 8.66 17 9 C17 10.65 17 12.3 17 14 C12.76815568 12.59445027 10.07917939 10.57219402 6.8125 7.5625 C5.95269531 6.78003906 5.09289062 5.99757812 4.20703125 5.19140625 C2 3 2 3 0 0 Z " fill="#873F10" transform="translate(19,204)"/>
<path d="M0 0 C5.86882273 0.53352934 11.64619754 1.40085109 17 4 C17.99 5.485 17.99 5.485 19 7 C11.6442203 8.00306087 6.3057121 4.47901358 0 1 C0 0.67 0 0.34 0 0 Z " fill="#954718" transform="translate(36,218)"/>
<path d="M0 0 C0 3 0 3 -1.79296875 5.12109375 C-13.03878583 16 -13.03878583 16 -17 16 C-17.33 14.68 -17.66 13.36 -18 12 C-15.50907189 10.75453595 -14.58919267 11.2232422 -12 12 C-12 10.35 -12 8.7 -12 7 C-11.01 8.485 -11.01 8.485 -10 10 C-6.7 6.7 -3.4 3.4 0 0 Z " fill="#7C1F18" transform="translate(145,197)"/>
<path d="M0 0 C1.32 0.33 2.64 0.66 4 1 C4 1.66 4 2.32 4 3 C4.680625 3.2475 5.36125 3.495 6.0625 3.75 C8.39701868 4.7434122 10.44578493 5.79013451 12.625 7.0625 C15.84176692 9.05729402 15.84176692 9.05729402 19 10 C19.33 9.01 19.66 8.02 20 7 C20.33 7.66 20.66 8.32 21 9 C20.67 9.99 20.34 10.98 20 12 C20.99 12.66 21.98 13.32 23 14 C20.525 13.505 20.525 13.505 18 13 C18 12.34 18 11.68 18 11 C16.02 11 14.04 11 12 11 C11.67 10.01 11.34 9.02 11 8 C7.99152582 6.77479736 7.99152582 6.77479736 5 6 C5 5.34 5 4.68 5 4 C4.360625 3.71125 3.72125 3.4225 3.0625 3.125 C1 2 1 2 0 0 Z " fill="#E14038" transform="translate(35,140)"/>
<path d="M0 0 C3 1 3 1 5.0625 3.1875 C8.74172689 7.03345923 13.40812986 9.39746491 18 12 C19.09054688 12.62841797 19.09054688 12.62841797 20.203125 13.26953125 C21.79796344 14.18688751 23.39829398 15.0946879 25 16 C24.01 16.33 23.02 16.66 22 17 C19.45283329 15.68943687 17.09963603 14.33854524 14.6875 12.8125 C14.03587891 12.41224609 13.38425781 12.01199219 12.71289062 11.59960938 C10.79739765 10.41656717 8.89745841 9.21170853 7 8 C6.41025391 7.63213379 5.82050781 7.26426758 5.21289062 6.88525391 C1.10219487 4.2627868 1.10219487 4.2627868 0.125 1.75 C0.08375 1.1725 0.0425 0.595 0 0 Z " fill="#370709" transform="translate(45,106)"/>
<path d="M0 0 C2.475 0.495 2.475 0.495 5 1 C5 1.66 5 2.32 5 3 C5.639375 3.28875 6.27875 3.5775 6.9375 3.875 C9 5 9 5 10 7 C11.88764903 7.68472665 11.88764903 7.68472665 14.0625 8.125 C15.16271484 8.37636719 15.16271484 8.37636719 16.28515625 8.6328125 C16.85105469 8.75398438 17.41695312 8.87515625 18 9 C18 9.33 18 9.66 18 10 C13.77109529 10.61671527 10.38137783 10.85645425 6.65625 8.546875 C1.31313559 3.93940678 1.31313559 3.93940678 0 0 Z " fill="#D0105E" transform="translate(111,49)"/>
<path d="M0 0 C0.33 0.99 0.66 1.98 1 3 C3.31 3.33 5.62 3.66 8 4 C8.268125 5.11375 8.53625 6.2275 8.8125 7.375 C9.65809019 11.21840951 9.65809019 11.21840951 13 13 C12.67 13.99 12.34 14.98 12 16 C10.29423294 14.29423294 8.58947692 12.58766372 6.890625 10.875 C5.31841156 9.31578006 3.69620544 7.80716667 2.0625 6.3125 C0 4 0 4 0 0 Z " fill="#E56F1D" transform="translate(16,196)"/>
<path d="M0 0 C3 1 3 1 4.1875 2.75 C5.10819096 5.29960574 5.14948718 7.30923081 5 10 C4.34 10 3.68 10 3 10 C3.0825 10.763125 3.165 11.52625 3.25 12.3125 C3 15 3 15 1.125 16.8125 C-1 18 -1 18 -3 18 C-3 17.34 -3 16.68 -3 16 C-2.34 16 -1.68 16 -1 16 C1.62904493 9.86556183 2.515821 6.36354724 0 0 Z " fill="#DD0D68" transform="translate(139,38)"/>
<path d="M0 0 C3.61393308 0.58415469 6.42476184 1.55480398 9.64453125 3.28515625 C10.48564453 3.73310547 11.32675781 4.18105469 12.19335938 4.64257812 C13.48983398 5.34543945 13.48983398 5.34543945 14.8125 6.0625 C15.69615234 6.53494141 16.57980469 7.00738281 17.49023438 7.49414062 C19.66331578 8.65703284 21.83302284 9.82578375 24 11 C24 11.66 24 12.32 24 13 C15.64770472 9.78757874 7.69659573 5.54798838 0 1 C0 0.67 0 0.34 0 0 Z " fill="#4D051D" transform="translate(98,74)"/>
<path d="M0 0 C-0.66 1.98 -1.32 3.96 -2 6 C-2.99 6 -3.98 6 -5 6 C-5 6.66 -5 7.32 -5 8 C-7 9.625 -7 9.625 -9 11 C-8.39622642 3.63396226 -8.39622642 3.63396226 -6.75 1 C-4.41516867 -0.33418933 -2.64213132 -0.21422686 0 0 Z " fill="#DD1954" transform="translate(76,72)"/>
<path d="M0 0 C0.33 0.99 0.66 1.98 1 3 C-2.72337651 9.81498878 -9.29400453 16.15837446 -16 20 C-18.30078125 19.7109375 -18.30078125 19.7109375 -20 19 C-19.41992188 18.62488281 -18.83984375 18.24976563 -18.2421875 17.86328125 C-10.38859928 12.71827379 -4.65729126 8.30481583 0 0 Z " fill="#4C0F0E" transform="translate(122,172)"/>
<path d="M0 0 C4.04324649 3.67949421 6.5013049 7.2228036 8.875 12.125 C9.1946875 12.74503906 9.514375 13.36507812 9.84375 14.00390625 C12.12679248 18.61962256 12.12679248 18.61962256 11 22 C10.45730469 20.97519531 9.91460937 19.95039062 9.35546875 18.89453125 C8.63288255 17.53381697 7.91022238 16.17314196 7.1875 14.8125 C6.83107422 14.13896484 6.47464844 13.46542969 6.10742188 12.77148438 C4.54918871 9.84086237 2.97857113 6.96517215 1.23828125 4.13671875 C0 2 0 2 0 0 Z " fill="#4E061F" transform="translate(148,108)"/>
<path d="M0 0 C5.72210596 1.86763181 11.37661751 3.85289032 17 6 C17 6.33 17 6.66 17 7 C12.01652166 7.16893147 8.57065526 7.15836498 4 5 C2.67323492 4.64141484 1.34164079 4.2981424 0 4 C0 2.68 0 1.36 0 0 Z " fill="#A8451F" transform="translate(49,188)"/>
<path d="M0 0 C3.31610584 2.21073723 3.86593901 3.43135397 4.7265625 7.2265625 C5.34137279 13.46249542 4.55877295 19.77798768 4 26 C3.67 26 3.34 26 3 26 C2.92652344 24.35451172 2.92652344 24.35451172 2.8515625 22.67578125 C2.77649409 21.22133075 2.70094803 19.76690484 2.625 18.3125 C2.5940625 17.59126953 2.563125 16.87003906 2.53125 16.12695312 C2.30462558 11.99105745 1.71774291 8.82336326 0 5 C-0.125 2.1875 -0.125 2.1875 0 0 Z " fill="#E51F4F" transform="translate(127,134)"/>
<path d="M0 0 C-3 2 -3 2 -6 2 C-6 2.66 -6 3.32 -6 4 C-6.56589844 4.18175781 -7.13179687 4.36351562 -7.71484375 4.55078125 C-8.81505859 4.92783203 -8.81505859 4.92783203 -9.9375 5.3125 C-10.66839844 5.55613281 -11.39929688 5.79976562 -12.15234375 6.05078125 C-14.35932024 6.91240441 -14.35932024 6.91240441 -15 10 C-15.66 10 -16.32 10 -17 10 C-15.6910959 6.07328769 -14.2923796 3.56073969 -11 1 C-7.30318795 0.05613309 -3.80370235 -0.1118736 0 0 Z " fill="#984716" transform="translate(27,169)"/>
<path d="M0 0 C5.0235929 2.05510619 7.51709044 4.13349726 10 9 C9.75 11.375 9.75 11.375 9 13 C8.773125 12.401875 8.54625 11.80375 8.3125 11.1875 C7.12788585 8.79713579 7.12788585 8.79713579 4.5 7.625 C1.26839655 5.52445776 0.89463364 3.65986487 0 0 Z " fill="#990C4B" transform="translate(134,30)"/>
<path d="M0 0 C1.65 0 3.3 0 5 0 C7 3.75 7 3.75 7 6 C8.45833358 7.62514468 8.45833358 7.62514468 10 9 C5.61633881 7.80445604 2.84621677 6.6125059 0 3 C0 2.01 0 1.02 0 0 Z " fill="#D84137" transform="translate(23,129)"/>
<path d="M0 0 C0.66 0.66 1.32 1.32 2 2 C3.9843835 2.22771614 5.96921753 2.45291484 7.95703125 2.6484375 C10.74363021 3.12796696 12.7256772 4.36533048 15 6 C14.67 6.66 14.34 7.32 14 8 C12.515 7.566875 12.515 7.566875 11 7.125 C7.02250133 5.98624782 3.01769007 4.98680107 -1 4 C-0.67 2.68 -0.34 1.36 0 0 Z " fill="#ED6E18" transform="translate(37,214)"/>
<path d="M0 0 C1.27351308 2.54702616 0.80191925 3.4282945 0.0625 6.125 C-0.13214844 6.84945312 -0.32679687 7.57390625 -0.52734375 8.3203125 C-0.76130859 9.15175781 -0.76130859 9.15175781 -1 10 C-1.66 10 -2.32 10 -3 10 C-3.103125 10.928125 -3.20625 11.85625 -3.3125 12.8125 C-4.03227796 16.14965236 -4.57142872 16.83186532 -7 19 C-4.29384966 5.18223235 -4.29384966 5.18223235 0 0 Z " fill="#9C1B36" transform="translate(16,42)"/>
<path d="M0 0 C1.125 1.5625 1.125 1.5625 2 4 C1.125 7.75 1.125 7.75 0 11 C-0.66 11 -1.32 11 -2 11 C-3.60725635 7.78548731 -3.05748185 4.56387464 -3 1 C-2.01 0.67 -1.02 0.34 0 0 Z " fill="#FB7210" transform="translate(14,182)"/>
<path d="M0 0 C-1.41600689 6.13602988 -5.0663375 10.26698362 -9 15 C-9 11.37968443 -7.8569494 10.04539702 -6 7 C-5.835 6.29875 -5.67 5.5975 -5.5 4.875 C-4.69815901 1.86809628 -3.18854492 0 0 0 Z " fill="#551215" transform="translate(156,182)"/>
<path d="M0 0 C2.475 0.495 2.475 0.495 5 1 C5 1.66 5 2.32 5 3 C5.66 3 6.32 3 7 3 C9.09350689 6.4019487 9.17942163 9.05272412 9 13 C6.51093384 9.764214 4.24732957 6.4072416 2 3 C1.34 2.01 0.68 1.02 0 0 Z " fill="#C01A48" transform="translate(118,125)"/>
<path d="M0 0 C0.66 0.66 1.32 1.32 2 2 C1.88865006 8.83410244 -1.27362508 13.37766478 -6 18 C-6.66 17.67 -7.32 17.34 -8 17 C-7.195625 16.278125 -6.39125 15.55625 -5.5625 14.8125 C-2.97707928 11.97484311 -2.31957187 10.72833853 -2 7 C-1.34 7 -0.68 7 0 7 C0 4.69 0 2.38 0 0 Z " fill="#480521" transform="translate(144,41)"/>
<path d="M0 0 C1.7074998 1.28062485 3.37373596 2.61767557 5 4 C5 4.66 5 5.32 5 6 C5.7425 6.12375 6.485 6.2475 7.25 6.375 C9.80141485 6.95486701 11.7267573 7.73708739 14 9 C12 10 12 10 9.6875 9.43359375 C2.35860839 6.71721677 2.35860839 6.71721677 0.375 2.75 C0.25125 1.8425 0.1275 0.935 0 0 Z " fill="#D8204E" transform="translate(68,93)"/>
<path d="M0 0 C2.30104014 2.12251117 3.81894459 4.15548556 5.25 6.9375 C5.78367188 7.94103516 5.78367188 7.94103516 6.328125 8.96484375 C7.12634 11.38269269 6.82707306 12.63011757 6 15 C4 14 4 14 3.18359375 11.85546875 C2.93738281 10.97503906 2.69117188 10.09460938 2.4375 9.1875 C2.18871094 8.31480469 1.93992188 7.44210938 1.68359375 6.54296875 C1.09865973 4.36701419 0.53565572 2.18853624 0 0 Z " fill="#C41451" transform="translate(153,119)"/>
<path d="M0 0 C0.33 0 0.66 0 1 0 C0.22095672 11.52164009 0.22095672 11.52164009 -2 17 C-2.33 17 -2.66 17 -3 17 C-3.23733045 11.42273453 -2.57846031 6.36906939 -1 1 C-0.67 0.67 -0.34 0.34 0 0 Z " fill="#D22146" transform="translate(158,165)"/>
<path d="M0 0 C3.983719 1.32790633 7.01619517 3.30613578 10.3515625 5.78125 C11.86703157 6.90169159 13.43184766 7.95456511 15 9 C13.35 9 11.7 9 10 9 C10 8.34 10 7.68 10 7 C8.63875 6.5978125 8.63875 6.5978125 7.25 6.1875 C4.27008166 5.09868368 2.31409641 4.13608899 0 2 C0 1.34 0 0.68 0 0 Z " fill="#C52E3B" transform="translate(46,110)"/>
<path d="M0 0 C5.5 -0.36666667 5.5 -0.36666667 7.875 1.375 C9 3 9 3 9 5 C10.32 5.66 11.64 6.32 13 7 C7.92990529 6.52467862 4.02506742 3.95637706 0 1 C0 0.67 0 0.34 0 0 Z " fill="#5A1813" transform="translate(47,151)"/>
<path d="M0 0 C0.495 0.268125 0.99 0.53625 1.5 0.8125 C4.9236946 2.43875493 8.44132285 3.69515171 12 5 C12 5.99 12 6.98 12 8 C5.85169289 6.79444959 3.64751781 5.08441876 0 0 Z " fill="#8C2825" transform="translate(24,134)"/>
<path d="M0 0 C1.3479743 0.63654342 2.68596724 1.29605388 4 2 C3.34 2.66 2.68 3.32 2 4 C2 3.34 2 2.68 2 2 C-1.465 3.485 -1.465 3.485 -5 5 C-5.33 3.35 -5.66 1.7 -6 0 C-3.44901433 -1.27549283 -2.66705587 -0.86287102 0 0 Z " fill="#F86717" transform="translate(28,171)"/>
<path d="M0 0 C1.06751688 3.30421892 0.98942604 4.03172187 -0.1875 7.5625 C-1.89083122 10.79295577 -2.91363322 12.19075051 -6 14 C-4.50829734 9.0276578 -2.39542583 4.58154261 0 0 Z " fill="#B92B3B" transform="translate(127,164)"/>
<path d="M0 0 C1.32 0.33 2.64 0.66 4 1 C4 1.66 4 2.32 4 3 C5.423125 2.9690625 5.423125 2.9690625 6.875 2.9375 C10 3 10 3 12 4 C11.67 4.99 11.34 5.98 11 7 C9.53633658 6.60246179 8.0791065 6.18118616 6.625 5.75 C5.81289063 5.51796875 5.00078125 5.2859375 4.1640625 5.046875 C1.54214546 3.7785108 1.00617682 2.67576692 0 0 Z " fill="#E72F40" transform="translate(52,116)"/>
<path d="M0 0 C0.66 0.33 1.32 0.66 2 1 C-0.97 4.63 -3.94 8.26 -7 12 C-7.33 11.34 -7.66 10.68 -8 10 C-7.04367001 8.70684939 -6.08486149 7.41553147 -5.125 6.125 C-4.59132812 5.40570313 -4.05765625 4.68640625 -3.5078125 3.9453125 C-2 2 -2 2 0 0 Z " fill="#55081A" transform="translate(49,52)"/>
<path d="M0 0 C-0.33 0.99 -0.66 1.98 -1 3 C-4.63 3 -8.26 3 -12 3 C-10.68 2.34 -9.36 1.68 -8 1 C-7.34 0.608125 -6.68 0.21625 -6 -0.1875 C-3.57136965 -1.17413108 -2.42552909 -0.86626039 0 0 Z " fill="#EE393A" transform="translate(90,161)"/>
<path d="M0 0 C1.65 0 3.3 0 5 0 C5 0.66 5 1.32 5 2 C-2.28571429 5.42857143 -2.28571429 5.42857143 -7 5 C-5 3 -5 3 -2.9375 2.5 C-2.298125 2.335 -1.65875 2.17 -1 2 C-0.67 1.34 -0.34 0.68 0 0 Z " fill="#712A15" transform="translate(106,222)"/>
<path d="M0 0 C-1 3 -1 3 -2.77734375 4.203125 C-3.49019531 4.54859375 -4.20304687 4.8940625 -4.9375 5.25 C-6.00291016 5.78367188 -6.00291016 5.78367188 -7.08984375 6.328125 C-8.03537109 6.66070312 -8.03537109 6.66070312 -9 7 C-9.66 6.67 -10.32 6.34 -11 6 C-9.73083275 3.46166551 -8.58375191 3.10599099 -6.0625 1.875 C-5.35222656 1.52179688 -4.64195313 1.16859375 -3.91015625 0.8046875 C-2 0 -2 0 0 0 Z " fill="#D74C2E" transform="translate(122,215)"/>
<path d="M0 0 C2.9375 0.375 2.9375 0.375 6 1 C6.33 1.66 6.66 2.32 7 3 C7.99 3.33 8.98 3.66 10 4 C10 4.66 10 5.32 10 6 C6.68437443 5.44739574 3.84937793 4.83174295 1 3 C0.67 2.01 0.34 1.02 0 0 Z " fill="#DC1060" transform="translate(99,41)"/>
<path d="M0 0 C4.5067218 -0.17673419 7.96625544 -0.13551182 12 2 C12.33 2.66 12.66 3.32 13 4 C11.20676747 3.71812064 9.41542874 3.4241719 7.625 3.125 C6.62726563 2.96257813 5.62953125 2.80015625 4.6015625 2.6328125 C2 2 2 2 0 0 Z " fill="#E80C68" transform="translate(91,11)"/>
<path d="M0 0 C-2 2 -2 2 -4.0625 2.5 C-4.701875 2.665 -5.34125 2.83 -6 3 C-6.33 3.66 -6.66 4.32 -7 5 C-8.32 4.67 -9.64 4.34 -11 4 C-11 3.34 -11 2.68 -11 2 C-9.54494642 1.47007308 -8.08581873 0.9513211 -6.625 0.4375 C-5.81289062 0.14746094 -5.00078125 -0.14257812 -4.1640625 -0.44140625 C-2 -1 -2 -1 0 0 Z " fill="#F7472F" transform="translate(106,194)"/>
<path d="M0 0 C1.875 0.625 1.875 0.625 4 2 C5.35830457 5.19201574 6 7.52710626 6 11 C2.1334716 7.777893 1.11940982 4.85077588 0 0 Z " fill="#9A4912" transform="translate(12,193)"/>
<path d="M0 0 C2.63978826 3.18595135 5.10498388 6.30970546 7 10 C6.67 10.66 6.34 11.32 6 12 C2.28930302 8.00386479 0.40208382 5.62917348 0 0 Z " fill="#390A0C" transform="translate(38,94)"/>
<path d="M0 0 C2.64 0.66 5.28 1.32 8 2 C8 2.66 8 3.32 8 4 C8.66 4 9.32 4 10 4 C10 4.66 10 5.32 10 6 C5.56909529 4.79157144 3.01887244 3.48331435 0 0 Z " fill="#4C0919" transform="translate(98,113)"/>
<path d="M0 0 C1.32 0.33 2.64 0.66 4 1 C3.01 1.33 2.02 1.66 1 2 C0.67 2.99 0.34 3.98 0 5 C-2.64 5.33 -5.28 5.66 -8 6 C-6 4 -6 4 -3.4375 3 C-0.85158559 2.25129886 -0.85158559 2.25129886 0 0 Z " fill="#F55327" transform="translate(111,217)"/>
<path d="M0 0 C0.66 0.33 1.32 0.66 2 1 C1.60196439 3.88575819 1.20990931 4.82189513 -1.0625 6.75 C-1.701875 7.1625 -2.34125 7.575 -3 8 C-2.74438677 5.6568787 -2.40729228 3.32156597 -2 1 C-1.34 0.67 -0.68 0.34 0 0 Z " fill="#F61355" transform="translate(70,75)"/>
<path d="M0 0 C-1.62249941 0.83819158 -3.24808497 1.6704116 -4.875 2.5 C-6.23238281 3.19609375 -6.23238281 3.19609375 -7.6171875 3.90625 C-10 5 -10 5 -12 5 C-12 4.34 -12 3.68 -12 3 C-10.75823305 2.29773859 -9.50614401 1.61370891 -8.25 0.9375 C-7.20585938 0.36322266 -7.20585938 0.36322266 -6.140625 -0.22265625 C-3.63859372 -1.1312406 -2.4667645 -0.88336837 0 0 Z " fill="#410516" transform="translate(68,43)"/>
<path d="M0 0 C1.32 0.33 2.64 0.66 4 1 C0.535 3.97 0.535 3.97 -3 7 C-2.25 2.25 -2.25 2.25 0 0 Z " fill="#D43C37" transform="translate(137,201)"/>
<path d="M0 0 C1.98 0.66 3.96 1.32 6 2 C5.67 2.99 5.34 3.98 5 5 C5.66 5 6.32 5 7 5 C6.67 5.66 6.34 6.32 6 7 C1.2 4.53846154 1.2 4.53846154 0.1875 1.8125 C0.125625 1.214375 0.06375 0.61625 0 0 Z " fill="#DD1A53" transform="translate(114,119)"/>
<path d="M0 0 C2.8125 0.1875 2.8125 0.1875 6 1 C7.875 3.5625 7.875 3.5625 9 6 C4.25 4.125 4.25 4.125 2 3 C2 2.34 2 1.68 2 1 C1.34 0.67 0.68 0.34 0 0 Z " fill="#BC1C4A" transform="translate(106,116)"/>
<path d="M0 0 C2.03833424 1.2739589 4.03852126 2.61061923 6 4 C6 4.66 6 5.32 6 6 C3.03 5.505 3.03 5.505 0 5 C0 3.35 0 1.7 0 0 Z " fill="#D02A41" transform="translate(92,136)"/>
<path d="M0 0 C4.95 1.98 4.95 1.98 10 4 C10 4.33 10 4.66 10 5 C3.375 4.25 3.375 4.25 0 2 C0 1.34 0 0.68 0 0 Z " fill="#BF2937" transform="translate(64,121)"/>
<path d="M0 0 C1.46109063 0.25554054 2.91888096 0.53000372 4.375 0.8125 C5.59316406 1.03873047 5.59316406 1.03873047 6.8359375 1.26953125 C9 2 9 2 11 5 C6.87248551 4.39301257 3.6678852 2.96189209 0 1 C0 0.67 0 0.34 0 0 Z " fill="#3C0511" transform="translate(76,103)"/>
<path d="M0 0 C3.79303725 1.00193437 6.71536341 1.81024227 10 4 C6.6875 4.25 6.6875 4.25 3 4 C1.0625 2 1.0625 2 0 0 Z " fill="#C5125D" transform="translate(102,12)"/>
<path d="M0 0 C2.97 0.99 5.94 1.98 9 3 C8.67 3.66 8.34 4.32 8 5 C5.36 4.34 2.72 3.68 0 3 C0 2.01 0 1.02 0 0 Z " fill="#E31853" transform="translate(100,111)"/>
<path d="M0 0 C0.33 0.99 0.66 1.98 1 3 C0.01 3.99 -0.98 4.98 -2 6 C-2.99 5.67 -3.98 5.34 -5 5 C-3.35 3.35 -1.7 1.7 0 0 Z " fill="#DD363B" transform="translate(122,177)"/>
<path d="M0 0 C1.65 0 3.3 0 5 0 C5.66 1.32 6.32 2.64 7 4 C6.34 4.66 5.68 5.32 5 6 C4.54625 5.525625 4.0925 5.05125 3.625 4.5625 C2.06741796 2.90972192 2.06741796 2.90972192 0 2 C0 1.34 0 0.68 0 0 Z " fill="#F64230" transform="translate(23,129)"/>
<path d="M0 0 C0.66 0 1.32 0 2 0 C3.38938077 1.96147874 4.7260411 3.96166576 6 6 C4.02 5.34 2.04 4.68 0 4 C0 2.68 0 1.36 0 0 Z " fill="#D52E41" transform="translate(38,100)"/>
<path d="M0 0 C2.5 1.375 2.5 1.375 5 3 C5 3.66 5 4.32 5 5 C3.35 5 1.7 5 0 5 C0 3.35 0 1.7 0 0 Z " fill="#D90C66" transform="translate(129,26)"/>
<path d="" fill="#000000" transform="translate(0,0)"/>
<path d="" fill="#000000" transform="translate(0,0)"/>
<path d="" fill="#000000" transform="translate(0,0)"/>
<path d="" fill="#000000" transform="translate(0,0)"/>
<path d="" fill="#000000" transform="translate(0,0)"/>
<path d="" fill="#000000" transform="translate(0,0)"/>
<path d="" fill="#000000" transform="translate(0,0)"/>
<path d="" fill="#000000" transform="translate(0,0)"/>
<path d="" fill="#000000" transform="translate(0,0)"/>
<path d="" fill="#000000" transform="translate(0,0)"/>
<path d="" fill="#000000" transform="translate(0,0)"/>
<path d="" fill="#000000" transform="translate(0,0)"/>
<path d="" fill="#000000" transform="translate(0,0)"/>
<path d="" fill="#000000" transform="translate(0,0)"/>
<path d="" fill="#000000" transform="translate(0,0)"/>
<path d="" fill="#000000" transform="translate(0,0)"/>
<path d="" fill="#000000" transform="translate(0,0)"/>
<path d="" fill="#000000" transform="translate(0,0)"/>
<path d="" fill="#000000" transform="translate(0,0)"/>
<path d="" fill="#000000" transform="translate(0,0)"/>
<path d="" fill="#000000" transform="translate(0,0)"/>
<path d="" fill="#000000" transform="translate(0,0)"/>
<path d="" fill="#000000" transform="translate(0,0)"/>
<path d="" fill="#000000" transform="translate(0,0)"/>
<path d="" fill="#000000" transform="translate(0,0)"/>
<path d="" fill="#000000" transform="translate(0,0)"/>
<path d="" fill="#000000" transform="translate(0,0)"/>
<path d="" fill="#000000" transform="translate(0,0)"/>
<path d="" fill="#000000" transform="translate(0,0)"/>
<path d="" fill="#000000" transform="translate(0,0)"/>
<path d="" fill="#000000" transform="translate(0,0)"/>
<path d="" fill="#000000" transform="translate(0,0)"/>
<path d="" fill="#000000" transform="translate(0,0)"/>
<path d="" fill="#000000" transform="translate(0,0)"/>
<path d="" fill="#000000" transform="translate(0,0)"/>
<path d="" fill="#000000" transform="translate(0,0)"/>
<path d="" fill="#000000" transform="translate(0,0)"/>
<path d="" fill="#000000" transform="translate(0,0)"/>
</svg>
