<svg version="1.1" xmlns="http://www.w3.org/2000/svg" width="14.834" height="21" viewBox="0 0 14.834 21"><path d="M10.856 7.555C11.324 7.826 11.744 8.136 12.153 8.489l0.137 0.115c1.149 0.974 2.037 2.179 2.254 3.714 0.154 1.947 -0.11 3.712 -1.363 5.28A25.021 25.021 0 0 1 12.779 18.051l-0.156 0.175c-1.241 1.318 -3.149 2.249 -4.959 2.337 -0.837 0.021 -1.667 0.034 -2.481 -0.188l-0.31 -0.083c-1.634 -0.49 -3.015 -1.461 -3.968 -2.894C0.689 16.989 0.605 16.629 0.715 16.174c0.226 -0.518 0.562 -0.906 1.072 -1.162 0.388 -0.063 0.744 -0.09 1.089 0.118 0.184 0.161 0.353 0.329 0.519 0.508 0.958 1.026 2.044 1.773 3.481 1.829 1.158 0.016 2.115 -0.219 3.042 -0.935l0.279 -0.19c0.701 -0.609 1.08 -1.62 1.172 -2.524 0.028 -0.889 -0.21 -1.719 -0.814 -2.385 -0.924 -0.868 -2.046 -1.378 -3.193 -1.884C5.989 8.939 5.989 8.939 5.63 8.221c-0.07 -0.619 0.008 -1.09 0.357 -1.609 1.181 -1.447 3.672 0.275 4.869 0.942" fill="#FD343D"/><path d="M12.421 2.821c0.331 0.354 0.625 0.721 0.626 1.224 -0.085 0.514 -0.323 0.889 -0.715 1.228 -0.456 0.292 -1.001 0.259 -1.519 0.179 -0.313 -0.165 -0.549 -0.383 -0.804 -0.626 -1.082 -0.878 -2.088 -1.159 -3.485 -1.072 -0.666 0.105 -1.164 0.405 -1.698 0.804l-0.24 0.168C3.897 5.358 3.408 6.214 3.306 7.149c-0.029 0.704 0.167 1.216 0.503 1.829C3.932 9.204 3.932 9.204 4.021 9.472l0.268 0.089 0.184 0.196c0.74 0.762 1.96 1.249 2.937 1.646C7.685 11.528 7.685 11.528 7.774 11.706l0.184 0.061c0.383 0.171 0.696 0.431 0.977 0.743 0.167 0.463 0.13 0.933 -0.006 1.396 -0.262 0.456 -0.584 0.728 -1.05 0.966 -0.736 0.13 -1.378 -0.079 -2.039 -0.391l-0.233 -0.108C4.862 14.02 4.168 13.6 3.485 13.136l-0.275 -0.184C1.728 11.923 0.723 10.615 0.357 8.847c-0.315 -1.803 0.084 -3.639 1.089 -5.161C2.111 2.78 2.861 2.068 3.843 1.519l0.21 -0.125C6.839 -0.147 10.201 0.752 12.421 2.821" fill="#FC1E50"/><path d="M8.757 6.523v0.089c-0.425 0.013 -0.795 0.013 -1.206 -0.095 -0.397 -0.096 -0.819 -0.149 -1.206 0.006 -0.265 0.332 -0.313 0.627 -0.341 1.044l-0.024 0.308C5.958 8.144 5.958 8.144 6.166 8.311l0.05 0.263c0.098 0.279 0.098 0.279 0.3 0.365 0.382 0.129 0.769 0.215 1.169 0.266v0.179l0.257 -0.017L8.221 9.383l0.179 0.268c0.2 0.104 0.2 0.104 0.43 0.184l0.231 0.087L9.294 10.008q0.224 0.089 0.447 0.179v0.179l0.391 0.218 0.22 0.122q0.184 0.102 0.372 0.196l-0.089 0.179h0.179v0.179h0.179v0.179h0.179c0.466 0.756 0.671 1.428 0.654 2.318l0.001 0.23c-0.005 0.556 -0.005 0.556 -0.208 0.759v0.268c-0.141 0.206 -0.141 0.206 -0.329 0.436l-0.185 0.228c-0.352 0.405 -0.735 0.765 -1.144 1.112l-0.252 0.217C9.472 17.157 9.472 17.157 9.263 17.136L9.115 17.068l0.157 -0.102A41.106 41.106 0 0 0 9.919 16.532l0.279 -0.19c0.701 -0.609 1.08 -1.62 1.172 -2.524 0.028 -0.889 -0.21 -1.719 -0.814 -2.385 -0.924 -0.868 -2.046 -1.378 -3.193 -1.884C5.989 8.939 5.989 8.939 5.63 8.221c-0.07 -0.619 0.008 -1.09 0.357 -1.609 0.767 -0.941 1.827 -0.498 2.77 -0.089" fill="#5A081A"/><path d="M4.021 9.472c0.268 0.089 0.268 0.089 0.452 0.285 0.74 0.762 1.96 1.249 2.937 1.646C7.685 11.528 7.685 11.528 7.774 11.706l0.184 0.061c0.383 0.171 0.696 0.431 0.977 0.743 0.167 0.463 0.13 0.933 -0.006 1.396 -0.262 0.456 -0.584 0.728 -1.05 0.966 -0.736 0.13 -1.378 -0.079 -2.039 -0.391l-0.233 -0.108C4.862 14.02 4.167 13.601 3.485 13.136l-0.294 -0.2C2.777 12.645 2.45 12.382 2.145 11.974l0.153 0.078c0.204 0.101 0.41 0.194 0.618 0.285 0.192 0.085 0.382 0.169 0.57 0.263v0.179l0.184 0.067a5.094 5.094 0 0 1 0.586 0.296c0.287 0.178 0.287 0.178 0.57 0.262l0.089 -0.268 0.089 0.179 -0.089 0.268 0.715 0.268 0.089 -0.179v0.179h0.179v0.179h0.179v0.179c0.199 0.045 0.398 0.089 0.598 0.132 0.15 0.034 0.299 0.072 0.447 0.113 0.279 0.03 0.481 -0.065 0.743 -0.156l0.268 0.089 0.179 -0.447h0.179v-0.179h0.357c-0.002 -0.703 -0.002 -0.703 -0.257 -1.34 -0.329 -0.211 -0.656 -0.331 -1.028 -0.448 -0.238 -0.09 -0.393 -0.202 -0.592 -0.357a32.081 32.081 0 0 0 -0.505 -0.183c-0.334 -0.136 -0.64 -0.322 -0.951 -0.505 -0.241 -0.131 -0.241 -0.131 -0.528 -0.161C4.736 10.723 4.736 10.723 4.541 10.461L4.379 10.187l-0.268 -0.179c-0.061 -0.279 -0.061 -0.279 -0.089 -0.536" fill="#D62C43"/><path d="M8.757 6.613c1.208 0.199 2.48 1.094 3.396 1.877l0.138 0.116c1.149 0.974 2.036 2.179 2.253 3.713 0.141 1.772 -0.021 3.628 -1.204 5.053L13.136 17.604c0 -0.323 0.102 -0.443 0.268 -0.715l0.045 -0.19c0.045 -0.168 0.045 -0.168 0.172 -0.267 0.217 -0.261 0.235 -0.569 0.286 -0.895 0.113 -0.694 0.113 -0.694 0.212 -0.793 0.024 -0.364 0.024 -0.728 0.026 -1.093q0.002 -0.183 0.006 -0.366c0.023 -1.053 -0.104 -1.973 -0.747 -2.83l-0.095 -0.201c-0.085 -0.187 -0.085 -0.187 -0.352 -0.335l-0.117 -0.207c-0.146 -0.26 -0.146 -0.26 -0.424 -0.464 -0.263 -0.223 -0.263 -0.223 -0.34 -0.438C11.771 8.11 10.76 7.724 10.098 7.417a79.085 79.085 0 0 1 -0.575 -0.279l-0.268 -0.129c-0.206 -0.115 -0.343 -0.219 -0.497 -0.396" fill="#6A0C25"/><path d="M12.957 17.604c0 0.268 0 0.268 -0.141 0.445 -1.675 1.658 -3.654 2.528 -6.012 2.52C5.57 20.554 4.26 20.257 3.217 19.57c0.331 -0.123 0.487 -0.048 0.804 0.089q0.187 0.041 0.374 0.078C4.736 19.838 4.736 19.838 4.847 20.023L4.915 20.196q0.56 0.007 1.12 0.01 0.19 0.001 0.379 0.004c1.537 0.025 1.537 0.025 2.991 -0.416l0.242 -0.114c0.196 -0.094 0.196 -0.094 0.272 -0.288 0.145 -0.021 0.29 -0.042 0.436 -0.058 0.343 -0.057 0.667 -0.182 0.994 -0.3l0.089 -0.447 0.447 0.089v-0.447l0.179 0.268z" fill="#E05D27"/><path d="M2.681 15.013c0.281 0.169 0.493 0.386 0.715 0.626 0.886 0.949 1.938 1.741 3.273 1.817 0.7 0.022 1.358 0.016 2.016 -0.248C8.847 17.157 8.847 17.157 9.115 17.247l-0.447 0.089v0.179c-0.462 0.276 -0.855 0.328 -1.379 0.352l-0.237 0.012c-0.732 0.021 -1.359 -0.12 -2.048 -0.364v-0.179l-0.262 -0.078C4.468 17.157 4.468 17.157 4.379 16.979h-0.179l-0.179 -0.357 -0.357 0.089 -0.017 -0.212L3.574 16.264l-0.207 -0.078c-0.272 -0.114 -0.295 -0.163 -0.424 -0.413 -0.105 -0.2 -0.159 -0.302 -0.341 -0.441 -0.246 -0.065 -0.472 -0.062 -0.726 -0.05v0.179l-0.153 0.049 -0.199 0.068 -0.198 0.066c-0.197 0.077 -0.197 0.077 -0.255 0.353h-0.179c0.128 -0.449 0.352 -0.622 0.715 -0.894 0.34 -0.17 0.704 -0.155 1.072 -0.089" fill="#E25828"/><path d="M12.421 2.821c0.331 0.354 0.625 0.721 0.626 1.224 -0.085 0.514 -0.323 0.889 -0.715 1.228 -0.306 0.2 -0.577 0.208 -0.938 0.212l-0.304 0.008c-0.328 -0.049 -0.429 -0.145 -0.634 -0.399l0.268 0.089c0.505 0.018 0.885 -0.046 1.352 -0.223l0.185 -0.07c0.166 -0.064 0.166 -0.064 0.34 -0.154 0.059 -0.226 0.059 -0.226 0.089 -0.447h0.179c-0.121 -0.552 -0.121 -0.552 -0.486 -0.944L12.153 3.217c-0.076 -0.152 -0.076 -0.152 -0.15 -0.336 -0.208 -0.434 -0.49 -0.616 -0.9 -0.848l-0.184 -0.11A18.587 18.587 0 0 0 10.366 1.609l-0.182 -0.1c-1.38 -0.73 -3.392 -0.757 -4.871 -0.341 -0.621 0.186 -0.621 0.186 -1.208 0.456C3.932 1.698 3.932 1.698 3.664 1.609 6.607 -0.064 9.989 0.553 12.421 2.821" fill="#5D0728"/><path d="M0.983 4.468c0.102 0.345 0.051 0.472 -0.089 0.804 -0.191 0.688 -0.206 1.338 -0.201 2.05l-0.002 0.328c-0.043 1.051 -0.043 1.051 0.344 1.98L1.162 9.74l-0.089 0.179 0.179 0.179a66.217 66.217 0 0 1 0.191 0.464c0.11 0.231 0.272 0.413 0.435 0.609v0.179h0.179l0.089 0.626c-1.152 -0.843 -1.612 -2.125 -1.849 -3.479C0.158 7.064 0.423 5.781 0.983 4.468" fill="#A0272B"/><path d="m2.145 11.974 0.153 0.078c0.204 0.101 0.41 0.194 0.618 0.285 0.192 0.085 0.382 0.169 0.57 0.263v0.179l0.184 0.067a5.094 5.094 0 0 1 0.586 0.296c0.287 0.178 0.287 0.178 0.57 0.262l0.089 -0.268 0.089 0.179 -0.089 0.268 0.715 0.268 0.089 -0.179v0.179h0.179v0.179h0.179v0.179c0.199 0.045 0.398 0.089 0.598 0.132 0.15 0.034 0.299 0.072 0.447 0.113 0.279 0.03 0.481 -0.065 0.743 -0.156l0.268 0.089 0.179 -0.447h0.179v-0.179h0.268c-0.155 0.508 -0.466 0.698 -0.894 0.983 -0.704 0.128 -1.23 -0.073 -1.847 -0.401 -0.249 -0.112 -0.429 -0.167 -0.692 -0.216 -0.432 -0.088 -0.75 -0.268 -1.114 -0.511l-0.186 -0.12A38.515 38.515 0 0 1 3.485 13.136l-0.155 -0.105C2.867 12.716 2.484 12.426 2.145 11.974" fill="#D03B36"/><path d="m7.719 3.318 0.216 0.036C8.426 3.439 8.927 3.546 9.383 3.753l0.089 0.179 0.268 0.089c0.137 0.175 0.137 0.175 0.274 0.391l0.137 0.214L10.277 4.826l0.179 0.268c-0.281 -0.128 -0.5 -0.285 -0.737 -0.48C8.738 3.841 7.755 3.676 6.523 3.753c-0.6 0.095 -1.043 0.335 -1.527 0.696C4.826 4.557 4.826 4.557 4.557 4.557c0.186 -0.456 0.364 -0.669 0.804 -0.894a6.791 6.791 0 0 1 0.656 -0.126c0.254 -0.046 0.254 -0.046 0.526 -0.198 0.404 -0.18 0.752 -0.103 1.175 -0.022" fill="#CD1257"/><path d="M8.757 6.613c1.208 0.199 2.48 1.094 3.396 1.877l0.138 0.116C13.181 9.36 13.935 10.214 14.298 11.349l-0.089 0.268 -0.082 -0.183c-0.217 -0.461 -0.384 -0.771 -0.812 -1.068l-0.089 -0.268 -0.268 -0.179 -0.117 -0.207c-0.146 -0.26 -0.146 -0.26 -0.424 -0.464 -0.263 -0.223 -0.263 -0.223 -0.34 -0.438C11.771 8.11 10.76 7.724 10.098 7.417a79.085 79.085 0 0 1 -0.575 -0.279l-0.268 -0.129c-0.206 -0.115 -0.343 -0.219 -0.497 -0.396" fill="#CF145B"/><path d="M6.255 10.991c0.348 0.056 0.64 0.161 0.961 0.307l0.261 0.117C7.685 11.528 7.685 11.528 7.774 11.706l0.184 0.061c0.383 0.171 0.696 0.431 0.977 0.743 0.167 0.463 0.13 0.933 -0.006 1.396 -0.262 0.456 -0.584 0.728 -1.05 0.966 -0.953 0.168 -1.694 -0.243 -2.519 -0.665 0.145 -0.061 0.145 -0.061 0.357 -0.089 0.255 0.109 0.255 0.109 0.542 0.263 0.548 0.263 0.999 0.403 1.603 0.274 0.434 -0.196 0.682 -0.468 0.894 -0.894 0.049 -0.263 0.049 -0.263 0.045 -0.536l0.008 -0.274c-0.071 -0.352 -0.219 -0.506 -0.5 -0.709 -0.345 -0.216 -0.699 -0.413 -1.056 -0.609l-0.291 -0.162q-0.354 -0.197 -0.709 -0.391z" fill="#4A0F10"/><path d="M11.349 11.974c0.31 0.207 0.338 0.332 0.415 0.685 0.056 0.364 0.058 0.723 0.054 1.091l0.002 0.231 -0.001 0.221 -0.001 0.199C11.796 14.566 11.796 14.566 11.617 14.745v0.268c-0.141 0.206 -0.141 0.206 -0.329 0.436l-0.185 0.228c-0.352 0.405 -0.735 0.765 -1.144 1.112l-0.252 0.217C9.472 17.157 9.472 17.157 9.263 17.136L9.115 17.068l0.157 -0.102c0.631 -0.413 1.147 -0.761 1.525 -1.429C10.902 15.37 10.902 15.37 11.032 15.254c0.457 -0.502 0.443 -1.075 0.428 -1.715l-0.001 -0.247c-0.005 -0.447 -0.035 -0.876 -0.11 -1.317" fill="#D32845"/><path d="M8.757 6.523v0.089c-0.425 0.013 -0.795 0.013 -1.206 -0.095 -0.397 -0.096 -0.819 -0.149 -1.206 0.006 -0.265 0.332 -0.313 0.627 -0.341 1.044l-0.024 0.308C5.958 8.144 5.958 8.144 6.166 8.311c-0.034 0.19 -0.034 0.19 -0.089 0.357 -0.283 -0.353 -0.413 -0.587 -0.386 -1.059 0.068 -0.45 0.186 -0.852 0.465 -1.214C7.013 5.764 7.869 6.139 8.757 6.523" fill="#860D33"/><path d="M3.217 19.481c0.516 0.047 1.056 0.109 1.519 0.357l0.08 0.184c0.033 0.057 0.065 0.114 0.099 0.173 0.23 0.065 0.23 0.065 0.519 0.067l0.357 0.015c1.018 0.021 2.037 0.014 3.056 0.007 -0.77 0.513 -2.309 0.348 -3.195 0.207C4.812 20.307 3.939 20.046 3.217 19.57z" fill="#652B0F"/><path d="m4.379 4.647 0.179 0.089 -0.144 0.17c-0.688 0.834 -1.15 1.607 -1.107 2.717 0.057 0.508 0.259 0.91 0.503 1.354C3.932 9.204 3.932 9.204 4.021 9.472c-0.257 -0.017 -0.257 -0.017 -0.536 -0.089 -0.173 -0.291 -0.179 -0.46 -0.179 -0.804h-0.179c-0.052 -1.388 0.064 -2.411 0.894 -3.574a10.187 10.187 0 0 1 0.357 -0.357" fill="#47060F"/><path d="M11.974 2.681c0.474 0.169 0.723 0.428 0.982 0.846 0.134 0.334 0.102 0.568 0.005 0.909 -0.175 0.398 -0.424 0.704 -0.789 0.941 -0.265 0.1 -0.496 0.105 -0.778 0.108l-0.304 0.008c-0.328 -0.049 -0.429 -0.145 -0.634 -0.399l0.268 0.089c0.505 0.018 0.885 -0.046 1.352 -0.223l0.185 -0.07c0.166 -0.064 0.166 -0.064 0.34 -0.154 0.059 -0.226 0.059 -0.226 0.089 -0.447h0.179c-0.124 -0.558 -0.124 -0.558 -0.497 -0.955L12.153 3.217c-0.117 -0.285 -0.117 -0.285 -0.179 -0.536" fill="#830A3E"/><path d="M8.132 6.613c0.436 -0.036 0.696 0.009 1.066 0.244 0.228 0.139 0.464 0.253 0.704 0.37C10.718 7.633 11.447 8.092 12.153 8.668l-0.089 0.268 -0.179 -0.089v-0.179h-0.179v-0.179l-0.536 -0.089v-0.268c-0.296 -0.101 -0.589 -0.198 -0.894 -0.268v-0.268l-0.191 -0.03c-0.28 -0.065 -0.515 -0.166 -0.775 -0.288l-0.264 -0.123L8.847 7.06v-0.179l-0.307 -0.034L8.221 6.791z" fill="#D6135A"/><path d="M5.808 6.881c0.101 0.335 0.101 0.335 0 0.536 -0.054 0.451 -0.038 0.718 0.218 1.1 0.426 0.514 1.021 0.605 1.659 0.687v0.179l0.156 0.022c0.259 0.086 0.373 0.227 0.559 0.424a10.991 10.991 0 0 0 0.357 0.268c-0.533 -0.088 -0.984 -0.319 -1.469 -0.547l-0.277 -0.125C6.401 9.138 5.938 8.837 5.63 8.221c-0.036 -0.473 -0.049 -0.913 0.179 -1.34" fill="#610B1F"/><path d="M2.703 15.376 2.86 15.46l-0.179 0.179v-0.179l-0.626 0.268v-0.179c-0.431 0.113 -0.431 0.113 -0.715 0.447 -0.015 0.268 -0.015 0.268 0 0.536 0 0.254 -0.036 0.468 -0.089 0.715h-0.179c-0.205 -0.841 -0.205 -0.841 -0.179 -1.251h0.179l0.022 -0.168C1.162 15.638 1.162 15.638 1.324 15.527 1.519 15.46 1.519 15.46 1.877 15.46v-0.179c0.346 -0.115 0.503 -0.058 0.827 0.095" fill="#EC7021"/><path d="M2.681 15.013c0.281 0.169 0.492 0.386 0.715 0.626 0.494 0.517 1.021 0.932 1.609 1.34l-0.179 0.089c-0.662 -0.447 -1.217 -0.924 -1.768 -1.499 -0.205 -0.206 -0.283 -0.284 -0.57 -0.297 -0.072 0.001 -0.145 0.002 -0.22 0.003l-0.221 0.002L1.877 15.281v0.179l-0.153 0.049 -0.199 0.068 -0.198 0.066c-0.197 0.077 -0.197 0.077 -0.255 0.353h-0.179c0.128 -0.449 0.352 -0.622 0.715 -0.894 0.34 -0.17 0.704 -0.155 1.072 -0.089" fill="#4C1C07"/><path d="M12.957 17.604c0 0.268 0 0.268 -0.141 0.445 -0.897 0.888 -2.43 2.187 -3.774 2.247L8.847 20.285c0.179 -0.179 0.179 -0.179 0.363 -0.223L9.383 20.017l0.089 -0.179c0.166 -0.047 0.166 -0.047 0.374 -0.084 0.357 -0.072 0.651 -0.174 0.966 -0.363l0.089 -0.179 0.223 -0.073L11.349 19.034c0.08 -0.228 0.08 -0.228 0.089 -0.447l0.447 0.089v-0.447l0.179 0.268z" fill="#5C1B0F"/><path d="M0.447 8.936c0.171 0.256 0.261 0.472 0.363 0.76l0.092 0.26q0.087 0.249 0.17 0.5h0.268c0.143 0.15 0.143 0.15 0.285 0.346l0.143 0.195C1.877 11.17 1.877 11.17 1.877 11.349h0.179l0.089 0.626c-0.867 -0.634 -1.458 -1.64 -1.698 -2.681z" fill="#7C221B"/><path d="M8.757 6.613c1.716 0.282 3.252 1.706 4.468 2.86l-0.089 0.179 -0.116 -0.125c-1.078 -1.125 -2.362 -1.95 -3.798 -2.547 -0.198 -0.099 -0.32 -0.201 -0.465 -0.367" fill="#41031A"/><path d="M8.132 0.983c1.341 0.059 2.298 0.48 3.396 1.251 -0.147 0.063 -0.147 0.063 -0.357 0.089 -0.244 -0.119 -0.244 -0.119 -0.514 -0.29 -0.421 -0.258 -0.805 -0.45 -1.273 -0.603l-0.279 -0.101c-0.26 -0.086 -0.26 -0.086 -0.547 -0.123C8.311 1.162 8.311 1.162 8.132 0.983" fill="#DC0E67"/><path d="M7.953 3.574v0.089l-0.281 0.01c-1.024 0.045 -1.831 0.146 -2.676 0.776C4.826 4.557 4.826 4.557 4.557 4.557c0.186 -0.456 0.356 -0.681 0.804 -0.894 0.842 -0.159 1.737 -0.098 2.591 -0.089" fill="#7F0C32"/><path d="m3.485 1.698 0.179 0.089a14.208 14.208 0 0 1 -0.447 0.536h-0.179c-0.021 0.053 -0.041 0.105 -0.063 0.16 -0.146 0.248 -0.306 0.349 -0.546 0.505C2.085 3.219 1.798 3.447 1.519 3.753c0.384 -0.836 1.214 -1.554 1.966 -2.055" fill="#7B0D2F"/><path d="m9.115 17.247 -0.447 0.089v0.179c-0.273 0.157 -0.47 0.202 -0.784 0.202l-0.246 0.001 -0.255 -0.002 -0.253 0.002C6.684 17.717 6.316 17.691 5.898 17.515c0.253 -0.073 0.469 -0.098 0.732 -0.089l0.215 0.005 0.225 0.005c0.576 0.009 1.071 -0.011 1.614 -0.229C8.847 17.157 8.847 17.157 9.115 17.247" fill="#652110"/><path d="M8.847 0.894c0.535 0.043 0.933 0.155 1.407 0.402l0.186 0.095C11.14 1.76 11.881 2.195 12.332 2.86c-0.253 -0.118 -0.463 -0.252 -0.681 -0.424C10.797 1.785 9.871 1.296 8.847 0.983z" fill="#41031D"/><path d="M6.255 10.991c0.348 0.056 0.64 0.161 0.961 0.307l0.261 0.117C7.685 11.528 7.685 11.528 7.774 11.706l0.184 0.061C8.346 11.941 8.627 12.224 8.936 12.511l-0.089 0.357 -0.111 -0.208c-0.165 -0.25 -0.274 -0.341 -0.532 -0.485l-0.235 -0.133L7.685 11.885q-0.188 -0.106 -0.377 -0.213A214.199 214.199 0 0 0 6.255 11.081z" fill="#3C080C"/><path d="M8.132 0.894v0.089l-0.313 0.013 -0.413 0.02 -0.206 0.008c-0.404 0.021 -0.742 0.078 -1.123 0.226 -0.229 0.066 -0.383 0.089 -0.626 0.089 -0.149 0.028 -0.298 0.057 -0.447 0.089l-0.089 -0.179c1.052 -0.452 2.094 -0.395 3.217 -0.357" fill="#E70E63"/><path d="M0.804 15.996h0.089l0.027 0.267 0.04 0.347 0.038 0.346c0.04 0.299 0.04 0.299 0.253 0.404l0.179 0.066c0.121 0.285 0.179 0.494 0.179 0.804 -0.554 -0.598 -0.929 -1.038 -0.912 -1.881C0.715 16.174 0.715 16.174 0.804 15.996" fill="#70320D"/><path d="M2.413 15.191c0.491 0.024 0.717 0.321 1.033 0.659a110.272 110.272 0 0 0 0.302 0.315l0.142 0.149c0.138 0.141 0.138 0.141 0.346 0.283L4.379 16.711v0.268h-0.179l-0.179 -0.357 -0.357 0.089 -0.017 -0.212L3.574 16.264l-0.207 -0.078c-0.313 -0.131 -0.361 -0.289 -0.51 -0.581 -0.114 -0.189 -0.237 -0.257 -0.445 -0.324z" fill="#E16125"/><path d="M13.672 10.634c0.469 0.448 0.641 0.857 0.659 1.504 0.002 0.333 -0.004 0.665 -0.011 0.998q-0.003 0.208 -0.005 0.416c-0.004 0.338 -0.01 0.676 -0.017 1.013h-0.089l-0.003 -0.213a119.208 119.208 0 0 0 -0.02 -0.971l-0.004 -0.334c-0.02 -0.749 -0.156 -1.358 -0.421 -2.056a8.936 8.936 0 0 1 -0.089 -0.357" fill="#E81955"/><path d="m2.145 11.974 0.134 0.073c0.197 0.093 0.386 0.16 0.592 0.229 0.33 0.12 0.33 0.12 0.469 0.335L3.396 12.779l0.179 0.089v0.179l0.162 0.028c0.221 0.069 0.314 0.157 0.464 0.329 -0.709 0 -1.414 -0.743 -1.914 -1.197C2.145 12.064 2.145 12.064 2.145 11.974" fill="#531510"/><path d="M3.128 7.864c0.179 0.335 0.179 0.335 0.179 0.536h0.179c0.135 0.189 0.135 0.189 0.279 0.436l0.146 0.245C4.021 9.294 4.021 9.294 4.021 9.472c-0.257 -0.017 -0.257 -0.017 -0.536 -0.089 -0.173 -0.291 -0.179 -0.46 -0.179 -0.804h-0.179z" fill="#C2293F"/><path d="M7.953 3.664c0.559 -0.051 0.86 0.041 1.333 0.34 0.178 0.115 0.178 0.115 0.37 0.143 0.241 0.073 0.315 0.201 0.458 0.404l0.138 0.192C10.366 4.915 10.366 4.915 10.455 5.094c-0.281 -0.128 -0.5 -0.285 -0.737 -0.48C9.168 4.18 8.63 3.922 7.953 3.753z" fill="#540724"/><path d="M8.489 13.762h0.268c-0.121 0.396 -0.289 0.569 -0.626 0.804 -0.236 0.118 -0.418 0.098 -0.681 0.095l-0.272 -0.003L6.97 14.655c0.292 -0.15 0.576 -0.27 0.894 -0.357l0.268 0.089 0.179 -0.447h0.179z" fill="#DB3440"/><path d="m6.345 6.255 0.268 0.089 -0.212 0.117c-0.392 0.402 -0.395 0.923 -0.428 1.466C5.966 8.15 5.966 8.15 6.166 8.311c-0.034 0.19 -0.034 0.19 -0.089 0.357 -0.283 -0.353 -0.413 -0.587 -0.386 -1.059C5.771 7.072 5.906 6.604 6.345 6.255" fill="#9C173A"/><path d="m10.366 16.353 0.089 0.179c-0.095 0.223 -0.095 0.223 -0.268 0.447 -0.279 0.106 -0.279 0.106 -0.536 0.179l-0.089 0.179c-0.204 0.037 -0.204 0.037 -0.452 0.056l-0.249 0.02L8.668 17.425c0.268 -0.179 0.268 -0.179 0.547 -0.285 0.439 -0.181 0.788 -0.487 1.151 -0.788" fill="#DB3E36"/><path d="M1.698 18.23c0.341 0.139 0.553 0.361 0.804 0.626l0.268 -0.179v0.268l0.447 0.089v0.447c-0.378 -0.126 -0.618 -0.306 -0.91 -0.575l-0.233 -0.212C1.877 18.498 1.877 18.498 1.698 18.23" fill="#873F10"/><path d="M3.217 19.481c0.524 0.048 1.041 0.125 1.519 0.357l0.179 0.268c-0.657 0.09 -1.134 -0.225 -1.698 -0.536z" fill="#954718"/><path d="M12.957 17.604c0 0.268 0 0.268 -0.16 0.458C11.792 19.034 11.792 19.034 11.438 19.034l-0.089 -0.357c0.223 -0.111 0.305 -0.069 0.536 0v-0.447l0.179 0.268z" fill="#7C1F18"/><path d="m3.128 12.511 0.357 0.089v0.179l0.184 0.067a5.094 5.094 0 0 1 0.586 0.296c0.287 0.178 0.287 0.178 0.57 0.262l0.089 -0.268 0.089 0.179 -0.089 0.268 0.268 0.179 -0.447 -0.089v-0.179h-0.536l-0.089 -0.268c-0.269 -0.109 -0.269 -0.109 -0.536 -0.179v-0.179l-0.173 -0.078C3.217 12.689 3.217 12.689 3.128 12.511" fill="#E14038"/><path d="M4.021 9.472c0.268 0.089 0.268 0.089 0.452 0.285 0.329 0.344 0.746 0.555 1.156 0.787l0.197 0.113Q6.04 10.781 6.255 10.902l-0.268 0.089a8.311 8.311 0 0 1 -0.653 -0.374l-0.176 -0.108A40.123 40.123 0 0 1 4.647 10.187l-0.16 -0.1c-0.367 -0.234 -0.367 -0.234 -0.455 -0.459z" fill="#370709"/><path d="m9.919 4.379 0.447 0.089v0.179l0.173 0.078C10.723 4.826 10.723 4.826 10.813 5.004c0.169 0.061 0.169 0.061 0.363 0.101l0.199 0.045L11.528 5.183v0.089c-0.378 0.055 -0.681 0.076 -1.014 -0.13 -0.477 -0.412 -0.477 -0.412 -0.595 -0.764" fill="#D0105E"/><path d="m1.43 17.515 0.089 0.268 0.626 0.089 0.073 0.302c0.076 0.343 0.076 0.343 0.374 0.503l-0.089 0.268q-0.229 -0.228 -0.457 -0.458a14.745 14.745 0 0 0 -0.431 -0.408C1.43 17.872 1.43 17.872 1.43 17.515" fill="#E56F1D"/><path d="M12.421 3.396c0.268 0.089 0.268 0.089 0.374 0.246 0.082 0.228 0.086 0.407 0.073 0.648h-0.179l0.022 0.207C12.689 4.736 12.689 4.736 12.522 4.898 12.332 5.004 12.332 5.004 12.153 5.004v-0.179h0.179c0.235 -0.548 0.314 -0.861 0.089 -1.43" fill="#DD0D68"/><path d="M8.757 6.613c0.323 0.052 0.574 0.139 0.862 0.294l0.228 0.121 0.234 0.127 0.239 0.128Q10.612 7.438 10.902 7.596v0.179c-0.746 -0.287 -1.457 -0.666 -2.145 -1.072z" fill="#4D051D"/><path d="m6.791 6.434 -0.179 0.536h-0.268v0.179c-0.179 0.145 -0.179 0.145 -0.357 0.268 0.054 -0.658 0.054 -0.658 0.201 -0.894 0.209 -0.119 0.367 -0.108 0.603 -0.089" fill="#DD1954"/><path d="m10.902 15.37 0.089 0.268c-0.333 0.609 -0.92 1.176 -1.519 1.519 -0.206 -0.026 -0.206 -0.026 -0.357 -0.089l0.157 -0.102c0.702 -0.46 1.214 -0.854 1.63 -1.596" fill="#4C0F0E"/><path d="M13.225 9.651c0.361 0.329 0.581 0.645 0.793 1.084l0.087 0.168c0.204 0.412 0.204 0.412 0.103 0.715l-0.147 -0.277 -0.194 -0.365 -0.097 -0.182c-0.139 -0.262 -0.28 -0.519 -0.435 -0.772C13.225 9.83 13.225 9.83 13.225 9.651" fill="#4E061F"/><path d="M4.379 16.8a32.706 32.706 0 0 1 1.519 0.536v0.089c-0.445 0.015 -0.753 0.014 -1.162 -0.179a8.132 8.132 0 0 0 -0.357 -0.089z" fill="#A8451F"/><path d="M11.349 11.974c0.296 0.197 0.345 0.307 0.422 0.646 0.055 0.557 -0.015 1.122 -0.065 1.678h-0.089l-0.013 -0.297 -0.02 -0.39c-0.003 -0.065 -0.006 -0.129 -0.008 -0.195 -0.02 -0.37 -0.073 -0.653 -0.226 -0.994 -0.011 -0.251 -0.011 -0.251 0 -0.447" fill="#E51F4F"/><path d="M2.413 15.102c-0.268 0.179 -0.268 0.179 -0.536 0.179v0.179l-0.153 0.049 -0.199 0.068 -0.198 0.066c-0.197 0.077 -0.197 0.077 -0.255 0.353h-0.179c0.117 -0.351 0.242 -0.575 0.536 -0.804 0.33 -0.084 0.643 -0.099 0.983 -0.089" fill="#984716"/><path d="M11.974 2.681c0.449 0.184 0.672 0.369 0.894 0.804 -0.022 0.212 -0.022 0.212 -0.089 0.357l-0.061 -0.162c-0.106 -0.214 -0.106 -0.214 -0.341 -0.318 -0.289 -0.188 -0.322 -0.354 -0.402 -0.681" fill="#990C4B"/><path d="M2.055 11.528h0.447c0.179 0.335 0.179 0.335 0.179 0.536 0.13 0.145 0.13 0.145 0.268 0.268 -0.392 -0.107 -0.639 -0.213 -0.894 -0.536z" fill="#D84137"/><path d="m3.306 19.123 0.179 0.179c0.177 0.02 0.355 0.04 0.532 0.058 0.249 0.043 0.426 0.153 0.629 0.3l-0.089 0.179 -0.268 -0.078c-0.355 -0.102 -0.713 -0.191 -1.072 -0.279z" fill="#ED6E18"/><path d="M1.43 3.753c0.114 0.228 0.072 0.306 0.006 0.547l-0.053 0.196L1.34 4.647h-0.179l-0.028 0.251C1.069 5.196 1.021 5.257 0.804 5.451c0.242 -1.235 0.242 -1.235 0.626 -1.698" fill="#9C1B36"/><path d="M1.251 16.264c0.101 0.14 0.101 0.14 0.179 0.357 -0.078 0.335 -0.078 0.335 -0.179 0.626h-0.179c-0.144 -0.287 -0.094 -0.575 -0.089 -0.894z" fill="#FB7210"/><path d="M13.94 16.264c-0.127 0.548 -0.453 0.917 -0.804 1.34 0 -0.323 0.102 -0.443 0.268 -0.715l0.045 -0.19c0.072 -0.269 0.207 -0.436 0.491 -0.436" fill="#551215"/><path d="m10.545 11.17 0.447 0.089v0.179h0.179c0.187 0.304 0.195 0.541 0.179 0.894 -0.223 -0.289 -0.425 -0.589 -0.626 -0.894z" fill="#C01A48"/><path d="m12.868 3.664 0.179 0.179c-0.01 0.611 -0.293 1.017 -0.715 1.43l-0.179 -0.089 0.218 -0.195c0.231 -0.254 0.29 -0.365 0.318 -0.698h0.179z" fill="#480521"/><path d="M6.077 8.311a9.383 9.383 0 0 1 0.447 0.357v0.179l0.201 0.034c0.228 0.052 0.4 0.122 0.603 0.235 -0.179 0.089 -0.179 0.089 -0.385 0.039 -0.655 -0.243 -0.655 -0.243 -0.832 -0.597z" fill="#D8204E"/><path d="M13.672 10.634c0.206 0.19 0.341 0.371 0.469 0.62l0.096 0.181c0.071 0.216 0.045 0.328 -0.029 0.539 -0.179 -0.089 -0.179 -0.089 -0.252 -0.281l-0.067 -0.238c-0.022 -0.078 -0.045 -0.156 -0.067 -0.236A26.719 26.719 0 0 1 13.672 10.634" fill="#C41451"/><path d="M14.119 14.745h0.089c-0.07 1.03 -0.07 1.03 -0.268 1.519h-0.089c-0.021 -0.498 0.038 -0.95 0.179 -1.43z" fill="#D22146"/><path d="M4.111 9.83c0.356 0.119 0.627 0.295 0.925 0.517 0.135 0.1 0.275 0.194 0.415 0.288h-0.447v-0.179l-0.246 -0.073c-0.266 -0.097 -0.441 -0.183 -0.648 -0.374z" fill="#C52E3B"/><path d="M4.2 13.494c0.491 -0.033 0.491 -0.033 0.704 0.123C5.004 13.762 5.004 13.762 5.004 13.94l0.357 0.179c-0.453 -0.042 -0.802 -0.272 -1.162 -0.536z" fill="#5A1813"/><path d="m2.145 11.974 0.134 0.073c0.306 0.145 0.62 0.258 0.938 0.374v0.268c-0.549 -0.108 -0.746 -0.261 -1.072 -0.715" fill="#8C2825"/><path d="M2.502 15.281a7.864 7.864 0 0 1 0.357 0.179l-0.179 0.179v-0.179l-0.626 0.268 -0.089 -0.447c0.228 -0.114 0.298 -0.077 0.536 0" fill="#F86717"/><path d="M11.349 14.655c0.095 0.295 0.088 0.36 -0.017 0.676 -0.152 0.289 -0.244 0.414 -0.519 0.575 0.133 -0.444 0.322 -0.842 0.536 -1.251" fill="#B92B3B"/><path d="m4.647 10.366 0.357 0.089v0.179l0.257 -0.006C5.54 10.634 5.54 10.634 5.719 10.723l-0.089 0.268c-0.131 -0.036 -0.261 -0.073 -0.391 -0.112l-0.22 -0.063c-0.234 -0.113 -0.282 -0.212 -0.372 -0.451" fill="#E72F40"/><path d="m4.379 4.647 0.179 0.089 -0.804 0.983 -0.089 -0.179q0.128 -0.173 0.257 -0.346l0.144 -0.195C4.2 4.826 4.2 4.826 4.379 4.647" fill="#55081A"/><path d="m8.043 14.387 -0.089 0.268H6.97l0.357 -0.179 0.179 -0.106c0.217 -0.088 0.319 -0.061 0.536 0.017" fill="#EE393A"/><path d="M9.472 19.838h0.447v0.179c-0.651 0.306 -0.651 0.306 -1.072 0.268 0.179 -0.179 0.179 -0.179 0.363 -0.223L9.383 20.017z" fill="#712A15"/><path d="M10.902 19.213c-0.089 0.268 -0.089 0.268 -0.248 0.376l-0.193 0.094 -0.192 0.096L10.098 19.838l-0.179 -0.089c0.113 -0.227 0.216 -0.259 0.441 -0.369l0.192 -0.096C10.723 19.213 10.723 19.213 10.902 19.213" fill="#D74C2E"/><path d="M8.847 3.664c0.263 0.034 0.263 0.034 0.536 0.089l0.089 0.179 0.268 0.089v0.179c-0.296 -0.049 -0.55 -0.104 -0.804 -0.268z" fill="#DC1060"/><path d="M8.132 0.983c0.403 -0.016 0.712 -0.012 1.072 0.179l0.089 0.179a50.4 50.4 0 0 1 -0.48 -0.078l-0.27 -0.044C8.311 1.162 8.311 1.162 8.132 0.983" fill="#E80C68"/><path d="M9.472 17.336c-0.179 0.179 -0.179 0.179 -0.363 0.223L8.936 17.604l-0.089 0.179 -0.357 -0.089v-0.179q0.195 -0.071 0.391 -0.14l0.22 -0.079C9.294 17.247 9.294 17.247 9.472 17.336" fill="#F7472F"/><path d="M1.072 17.247c0.168 0.056 0.168 0.056 0.357 0.179 0.121 0.285 0.179 0.494 0.179 0.804 -0.346 -0.288 -0.436 -0.55 -0.536 -0.983" fill="#9A4912"/><path d="M3.396 8.4c0.236 0.285 0.456 0.564 0.626 0.894l-0.089 0.179c-0.332 -0.357 -0.5 -0.569 -0.536 -1.072" fill="#390A0C"/><path d="m8.757 10.098 0.715 0.179v0.179h0.179v0.179c-0.396 -0.108 -0.624 -0.225 -0.894 -0.536" fill="#4C0919"/><path d="m9.919 19.391 0.357 0.089 -0.268 0.089 -0.089 0.268 -0.715 0.089c0.179 -0.179 0.179 -0.179 0.408 -0.268 0.231 -0.067 0.231 -0.067 0.307 -0.268" fill="#F55327"/><path d="m6.255 6.702 0.179 0.089c-0.036 0.258 -0.071 0.342 -0.274 0.514L5.987 7.417c0.023 -0.209 0.053 -0.418 0.089 -0.626z" fill="#F61355"/><path d="M6.077 3.843q-0.218 0.112 -0.436 0.223l-0.245 0.126C5.183 4.289 5.183 4.289 5.004 4.289v-0.179a18.319 18.319 0 0 1 0.335 -0.184l0.189 -0.104c0.223 -0.081 0.328 -0.059 0.549 0.02" fill="#410516"/><path d="m12.243 17.962 0.357 0.089 -0.626 0.536c0.067 -0.424 0.067 -0.424 0.268 -0.626" fill="#D43C37"/><path d="m10.187 10.634 0.536 0.179 -0.089 0.268h0.179l-0.089 0.179c-0.429 -0.22 -0.429 -0.22 -0.519 -0.464z" fill="#DD1A53"/><path d="M9.472 10.366c0.251 0.017 0.251 0.017 0.536 0.089 0.168 0.229 0.168 0.229 0.268 0.447 -0.424 -0.168 -0.424 -0.168 -0.626 -0.268v-0.179z" fill="#BC1C4A"/><path d="M8.221 12.153a11.17 11.17 0 0 1 0.536 0.357v0.179l-0.536 -0.089z" fill="#D02A41"/><path d="m5.719 10.813 0.894 0.357v0.089c-0.592 -0.067 -0.592 -0.067 -0.894 -0.268z" fill="#BF2937"/><path d="M6.791 9.204a21.536 21.536 0 0 1 0.391 0.073l0.22 0.041C7.596 9.383 7.596 9.383 7.774 9.651c-0.369 -0.054 -0.655 -0.182 -0.983 -0.357z" fill="#3C0511"/><path d="M9.115 1.072c0.339 0.09 0.6 0.162 0.894 0.357 -0.296 0.022 -0.296 0.022 -0.626 0 -0.173 -0.179 -0.173 -0.179 -0.268 -0.357" fill="#C5125D"/><path d="m8.936 9.919 0.804 0.268 -0.089 0.179 -0.715 -0.179z" fill="#E31853"/><path d="m10.902 15.817 0.089 0.268 -0.268 0.268 -0.268 -0.089z" fill="#DD363B"/><path d="M2.055 11.528h0.447l0.179 0.357 -0.179 0.179 -0.123 -0.128C2.24 11.788 2.24 11.788 2.055 11.706z" fill="#F64230"/><path d="M3.396 8.936h0.179a11.17 11.17 0 0 1 0.357 0.536l-0.536 -0.179z" fill="#D52E41"/><path d="M11.528 2.323c0.223 0.123 0.223 0.123 0.447 0.268v0.179h-0.447z" fill="#D90C66"/><path d="" fill="#000000"/><path d="" fill="#000000"/><path d="" fill="#000000"/><path d="" fill="#000000"/><path d="" fill="#000000"/><path d="" fill="#000000"/><path d="" fill="#000000"/><path d="" fill="#000000"/><path d="" fill="#000000"/><path d="" fill="#000000"/><path d="" fill="#000000"/><path d="" fill="#000000"/><path d="" fill="#000000"/><path d="" fill="#000000"/><path d="" fill="#000000"/><path d="" fill="#000000"/><path d="" fill="#000000"/><path d="" fill="#000000"/><path d="" fill="#000000"/><path d="" fill="#000000"/><path d="" fill="#000000"/><path d="" fill="#000000"/><path d="" fill="#000000"/><path d="" fill="#000000"/><path d="" fill="#000000"/><path d="" fill="#000000"/><path d="" fill="#000000"/><path d="" fill="#000000"/><path d="" fill="#000000"/><path d="" fill="#000000"/><path d="" fill="#000000"/><path d="" fill="#000000"/><path d="" fill="#000000"/><path d="" fill="#000000"/><path d="" fill="#000000"/><path d="" fill="#000000"/><path d="" fill="#000000"/><path d="" fill="#000000"/></svg>